<svg width="347" height="534" viewBox="0 0 347 534" fill="none" xmlns="http://www.w3.org/2000/svg">
<path d="M0.0683212 27.8245L1.00193 424.489L2.17047 424.952C6.05047 426.499 9.26815 428.789 11.4723 431.574C13.6765 434.358 14.7825 437.53 14.6696 440.742C14.5567 443.954 13.2292 447.083 10.8321 449.788C8.4349 452.493 5.06025 454.67 1.07629 456.081L1.19504 506.537C1.20339 510.081 2.17456 513.588 4.05317 516.857C5.93178 520.126 8.68099 523.094 12.1437 525.591C15.6063 528.088 19.7147 530.065 24.2339 531.409C28.7532 532.752 33.5948 533.437 38.4821 533.423L309.73 532.759C314.618 532.749 319.456 532.04 323.969 530.674C328.482 529.308 332.581 527.311 336.032 524.798C339.483 522.284 342.218 519.303 344.081 516.024C345.944 512.745 346.899 509.234 346.89 505.69L346.776 457.11C342.466 455.591 338.83 453.226 336.28 450.284C333.729 447.343 332.366 443.941 332.344 440.463C332.321 436.986 333.641 433.572 336.153 430.607C338.666 427.642 342.271 425.244 346.561 423.685L346.697 423.685L345.764 26.9777C345.755 23.4337 344.784 19.9268 342.906 16.6574C341.027 13.388 338.278 10.4201 334.815 7.92329C331.352 5.42646 327.244 3.44965 322.725 2.10579C318.206 0.761932 313.364 0.0773624 308.477 0.0911882L37.2284 0.755648C32.3411 0.765767 27.5027 1.47405 22.9899 2.84004C18.477 4.20602 14.378 6.20294 10.9271 8.7167C7.47624 11.2305 4.74104 14.2118 2.87784 17.4904C1.01464 20.769 0.05998 24.2805 0.0683212 27.8245Z" fill="#3B268E"/>
<path d="M346.02 356.897C170.366 362.299 60.4512 475.542 27.4507 531.488L322.985 531.97C343.765 527.34 347 508.82 346.02 500.139V457.215C323.279 442.553 336.544 427.312 346.02 421.525V356.897Z" fill="#432C9E" fill-opacity="0.33"/>
<path d="M95.0853 359.791C44.8985 320.436 11.4405 320.886 0.984942 326.031V424.419C27.6467 438.309 12.094 451.427 0.984942 456.25V488.081C-5.28842 523.578 19.9357 532.774 33.332 532.935C117.957 533.739 292.99 534.864 316.123 532.935C339.256 531.006 346.346 515.09 347 507.373V456.25C321.906 442.746 336.544 429.402 347 424.419V407.056C336.022 389.308 277.732 395.803 249.959 401.269C178.599 405.899 116.977 375.546 95.0853 359.791Z" fill="#3E2897" fill-opacity="0.51"/>
<path d="M292.386 379.206L302.206 374.253L297.253 364.433L287.433 369.387L292.386 379.206ZM296.409 366.995L299.644 373.409L293.23 376.644L290.002 370.233L296.409 366.995Z" fill="white"/>
<path d="M54.4597 219.764L56.2909 222.659L53.3967 224.49L54.7636 226.65L57.6578 224.819L59.4899 227.713L61.6502 226.346L59.8181 223.452L62.7132 221.62L61.3463 219.46L58.4512 221.292L56.62 218.397L54.4597 219.764Z" fill="white"/>
<path d="M269.46 102.764L271.291 105.659L268.397 107.49L269.764 109.65L272.658 107.819L274.49 110.713L276.65 109.346L274.818 106.452L277.713 104.62L276.346 102.46L273.451 104.292L271.62 101.397L269.46 102.764Z" fill="white"/>
<circle r="3" transform="matrix(1 0 0 -1 88 468)" fill="white"/>
<circle r="3" transform="matrix(1 0 0 -1 58 72)" fill="white"/>
</svg>
