<svg width="21" height="16" viewBox="0 0 21 16" fill="none" xmlns="http://www.w3.org/2000/svg">
<path d="M20.1709 6.95953H18.8852C18.8411 6.95953 18.7976 6.96925 18.7577 6.988C17.9205 7.38147 17.1488 7.89609 16.4572 8.52146C16.2004 7.53105 15.6465 6.63119 14.8632 5.94561C14.5511 5.67245 14.2095 5.4403 13.8467 5.25171C13.9625 5.2102 14.0455 5.09977 14.0455 4.96967C14.0455 4.80402 13.9113 4.6698 13.7456 4.6698H13.5122C13.4621 3.02586 12.2023 1.6816 10.5944 1.49928C10.6075 1.42559 10.6149 1.35074 10.6149 1.27521C10.6149 0.572074 10.0428 0 9.33966 0C8.63652 0 8.06448 0.572074 8.06448 1.27521C8.06448 1.3507 8.07184 1.42555 8.08496 1.4992C7.35327 1.58148 6.67408 1.90398 6.14275 2.42932C6.025 2.54575 6.02392 2.73563 6.14035 2.85338C6.25678 2.97108 6.44666 2.9722 6.56441 2.85577C7.07215 2.35375 7.74474 2.07727 8.45824 2.07727C8.57287 2.07727 10.3349 2.07727 10.2209 2.07727C11.6724 2.07727 12.8595 3.23121 12.9131 4.66984C11.9775 4.66984 6.38564 4.66984 5.76611 4.66984C5.77759 4.36165 5.84132 4.06058 5.95599 3.7733C6.0174 3.61949 5.94251 3.445 5.7887 3.38363C5.63497 3.32233 5.4604 3.39714 5.39903 3.55092C5.25597 3.9092 5.17856 4.2852 5.16685 4.66984H4.93363C4.76798 4.66984 4.63376 4.80406 4.63376 4.96971C4.63376 5.10053 4.71764 5.21144 4.83447 5.25243C4.29714 5.53143 3.80731 5.90467 3.39269 6.36099C2.42347 7.42769 1.94627 8.85952 2.08345 10.2894C2.13575 10.8347 2.22727 11.3686 2.35494 11.8822C2.21272 11.8142 2.06306 11.761 1.90813 11.7242L0.705803 11.4393C0.544992 11.4012 0.383062 11.5007 0.344878 11.6619L0.0599605 12.8642C-0.0894953 13.4948 0.0434876 14.158 0.424884 14.6836C0.483579 14.7644 0.575059 14.8074 0.66782 14.8074C0.728873 14.8074 0.790487 14.7888 0.843704 14.7502C0.977767 14.6529 1.00755 14.4654 0.910276 14.3313C0.631595 13.9473 0.534397 13.463 0.64351 13.0025L0.859297 12.092L1.76983 12.3078C1.99361 12.3608 2.20216 12.4609 2.38288 12.5994C2.12751 13.3295 2.18989 14.1465 2.5686 14.8346C2.31967 14.9931 2.04171 15.0229 1.73044 14.924C1.57267 14.8739 1.40398 14.9611 1.35385 15.1189C1.30367 15.2767 1.39099 15.4454 1.5488 15.4955C2.06366 15.6591 2.53286 15.5773 2.91386 15.3253C3.70859 16.2259 4.94718 16.1809 5.67687 15.4513C5.71781 15.4103 5.75667 15.3681 5.79446 15.3253C6.04687 15.4922 6.34394 15.5821 6.64613 15.5821C6.76324 15.5821 6.88115 15.5686 6.99734 15.5411C7.27526 15.4752 7.52819 15.359 7.74978 15.2053H13.9293C14.521 15.2053 15.0663 14.8814 15.3524 14.3601C15.5793 13.9468 15.7787 13.5179 15.9451 13.0854C16.0052 12.9292 16.1408 12.813 16.3079 12.7747C17.098 12.5935 17.7428 12.0008 17.9905 11.2274L18.0008 11.1971C18.0522 11.0396 17.9662 10.8703 17.8087 10.819C17.6511 10.7676 17.4819 10.8537 17.4306 11.0112L17.4272 11.0211C17.4245 11.0291 17.4217 11.0371 17.4193 11.0448C17.2359 11.6171 16.7587 12.056 16.1739 12.1901C15.8119 12.2731 15.5171 12.5273 15.3853 12.8701C15.2285 13.2775 15.0406 13.6818 14.8266 14.0716C14.6458 14.4009 14.302 14.6055 13.9293 14.6055H8.33649C8.66467 14.1104 8.79597 13.4865 8.64851 12.8642L8.36352 11.662C8.32533 11.5008 8.16372 11.4012 8.00259 11.4393L6.80031 11.7243C6.53454 11.7873 6.28405 11.8984 6.06062 12.0506C5.95315 11.8794 5.82581 11.7172 5.67695 11.5683L4.56631 10.4577C4.44916 10.3406 4.25932 10.3406 4.14221 10.4577L3.03148 11.5683C2.99406 11.6057 2.95828 11.6442 2.92345 11.6832C2.80994 11.215 2.72818 10.7288 2.68052 10.2321C2.55945 8.97011 2.98083 7.70609 3.83662 6.7643C4.69981 5.81434 5.93084 5.26954 7.21413 5.26954H11.4651C12.571 5.26954 13.6375 5.66993 14.4681 6.39689C15.2867 7.11335 15.8216 8.09373 15.9741 9.15747C15.9903 9.27026 16.069 9.36414 16.1772 9.39977C16.2854 9.43539 16.4045 9.40664 16.4845 9.32548C17.2082 8.59155 18.0383 7.99757 18.9527 7.55932H19.4551C18.8367 8.23371 18.3274 8.97339 17.9366 9.76569C17.8633 9.91422 17.9243 10.094 18.0728 10.1673C18.2214 10.2405 18.4012 10.1796 18.4745 10.0311C18.9364 9.09458 19.5765 8.23535 20.377 7.47719C20.4662 7.39279 20.4948 7.26256 20.4494 7.14849C20.404 7.03438 20.2936 6.95953 20.1709 6.95953V6.95953ZM9.33966 0.599742C9.7121 0.599742 10.0152 0.902733 10.0152 1.27521C10.0152 1.34426 10.0043 1.41239 9.98386 1.47753H8.69557C8.67518 1.41243 8.66427 1.3443 8.66427 1.27521C8.66423 0.902733 8.96722 0.599742 9.33966 0.599742V0.599742ZM6.93857 12.3078L7.84906 12.092L8.06488 13.0025C8.2714 13.8739 7.73051 14.7509 6.85908 14.9575C6.61087 15.0163 6.3509 14.9691 6.13975 14.8346C6.51847 14.1465 6.58084 13.3295 6.32547 12.5994C6.50619 12.4608 6.71478 12.3608 6.93857 12.3078V12.3078ZM4.3542 11.0938L5.25281 11.9924C6.41607 13.1557 5.79818 15.0872 4.65407 15.3632V14.2197L5.20543 13.735C5.32982 13.6257 5.34205 13.4362 5.2327 13.3118C5.12339 13.1874 4.93383 13.1752 4.80952 13.2846L4.65407 13.4212V13.2709C4.65407 13.1053 4.51985 12.971 4.3542 12.971C4.18855 12.971 4.05433 13.1053 4.05433 13.2709V14.1683L3.91355 14.0867C3.77013 14.0036 3.58673 14.0524 3.50372 14.1957C3.42064 14.339 3.4695 14.5225 3.61276 14.6055L4.05437 14.8615V15.3632C2.90874 15.0868 2.28848 13.1596 3.45562 11.9924L4.3542 11.0938Z" fill="url(#paint0_linear)"/>
<path d="M18.3809 5.26949C18.685 5.26949 18.9322 5.51682 18.9322 5.82081V6.42271C18.9322 6.58836 19.0665 6.72258 19.2321 6.72258C19.3978 6.72258 19.532 6.58836 19.532 6.42271V5.82081C19.532 5.18612 19.0156 4.66974 18.3809 4.66974C18.0769 4.66974 17.8296 4.42241 17.8296 4.11842V3.11001C17.8296 2.80139 18.0807 2.55033 18.3893 2.55033H19.167C19.8063 2.55033 20.3265 2.0302 20.3265 1.39091V1.12159C20.3265 0.955939 20.1922 0.821716 20.0266 0.821716C19.8609 0.821716 19.7267 0.955939 19.7267 1.12159V1.39091C19.7267 1.69954 19.4757 1.95059 19.167 1.95059H18.3893C17.75 1.95059 17.2299 2.47073 17.2299 3.11001V4.11842C17.2298 4.75311 17.7462 5.26949 18.3809 5.26949Z" fill="url(#paint1_linear)"/>
<path d="M20.1709 3.81061C20.0053 3.81061 19.871 3.94483 19.871 4.11048V6.27971C19.871 6.44536 20.0053 6.57958 20.1709 6.57958C20.3366 6.57958 20.4708 6.44536 20.4708 6.27971V4.11048C20.4708 3.94483 20.3366 3.81061 20.1709 3.81061Z" fill="url(#paint2_linear)"/>
<path d="M18.4543 1.57509C18.6199 1.57509 18.7541 1.44087 18.7541 1.27523V0.434325C18.7541 0.26868 18.6199 0.13446 18.4543 0.13446C18.2886 0.13446 18.1544 0.26868 18.1544 0.434325V1.27523C18.1544 1.44087 18.2887 1.57509 18.4543 1.57509Z" fill="url(#paint3_linear)"/>
<defs>
<linearGradient id="paint0_linear" x1="10.2354" y1="0" x2="10.2354" y2="16" gradientUnits="userSpaceOnUse">
<stop offset="0.9999" stop-color="#3C3664"/>
<stop offset="1" stop-color="white" stop-opacity="0"/>
</linearGradient>
<linearGradient id="paint1_linear" x1="18.7782" y1="0.821716" x2="18.7782" y2="6.72258" gradientUnits="userSpaceOnUse">
<stop offset="0.9999" stop-color="#3C3664"/>
<stop offset="1" stop-color="white" stop-opacity="0"/>
</linearGradient>
<linearGradient id="paint2_linear" x1="20.1709" y1="3.81061" x2="20.1709" y2="6.57958" gradientUnits="userSpaceOnUse">
<stop offset="0.9999" stop-color="#3C3664"/>
<stop offset="1" stop-color="white" stop-opacity="0"/>
</linearGradient>
<linearGradient id="paint3_linear" x1="18.4543" y1="0.13446" x2="18.4543" y2="1.57509" gradientUnits="userSpaceOnUse">
<stop offset="0.9999" stop-color="#3C3664"/>
<stop offset="1" stop-color="white" stop-opacity="0"/>
</linearGradient>
</defs>
</svg>
