<svg width="23" height="24" viewBox="0 0 23 24" fill="none" xmlns="http://www.w3.org/2000/svg">
<path d="M18.0468 9.84378H15.9374V4.92189C15.9374 2.20796 13.7294 0 11.0155 0C8.30156 0 6.0936 2.20796 6.0936 4.92189V9.84378H3.98422C3.59591 9.84378 3.2811 10.1586 3.2811 10.5469C3.2811 14.5746 6.37593 17.8926 10.3124 18.249V19.7813H9.60924C7.67072 19.7813 6.0936 21.3584 6.0936 23.2969C6.0936 23.6852 6.40842 24.0001 6.79673 24.0001H15.2343C15.6226 24.0001 15.9374 23.6852 15.9374 23.2969C15.9374 21.3584 14.3603 19.7813 12.4217 19.7813H11.7186V18.249C15.6551 17.8926 18.7499 14.5746 18.7499 10.5469C18.7499 10.1586 18.4351 9.84378 18.0468 9.84378V9.84378ZM14.4107 22.5938H7.62033C7.91053 21.7753 8.69255 21.1876 9.60924 21.1876H12.4217C13.3385 21.1876 14.1205 21.7753 14.4107 22.5938ZM7.49986 8.43752H8.67174C9.06005 8.43752 9.37486 8.12271 9.37486 7.73439C9.37486 7.34608 9.06005 7.03127 8.67174 7.03127H7.49986V5.62501H8.67174C9.06005 5.62501 9.37486 5.3102 9.37486 4.92189C9.37486 4.53357 9.06005 4.21876 8.67174 4.21876H7.57059C7.74511 3.36259 8.23177 2.61868 8.90611 2.1113V2.57813C8.90611 2.96645 9.22092 3.28126 9.60924 3.28126C9.99755 3.28126 10.3124 2.96645 10.3124 2.57813V1.47699C10.5396 1.43068 10.7747 1.40625 11.0155 1.40625C11.2562 1.40625 11.4914 1.43068 11.7186 1.47699V2.57813C11.7186 2.96645 12.0334 3.28126 12.4217 3.28126C12.8101 3.28126 13.1249 2.96645 13.1249 2.57813V2.1113C13.7992 2.61868 14.2859 3.36259 14.4604 4.21876H13.3592C12.9709 4.21876 12.6561 4.53357 12.6561 4.92189C12.6561 5.3102 12.9709 5.62501 13.3592 5.62501H14.5311V7.03127H13.3592C12.9709 7.03127 12.6561 7.34608 12.6561 7.73439C12.6561 8.12271 12.9709 8.43752 13.3592 8.43752H14.5311V9.84378H7.49986V8.43752ZM14.4604 11.25C14.1338 12.8528 12.7133 14.0625 11.0155 14.0625C9.31772 14.0625 7.89727 12.8528 7.57059 11.25H14.4604ZM11.0155 16.875C7.76381 16.875 5.07707 14.4096 4.72616 11.25H6.14404C6.48628 13.6321 8.54025 15.4688 11.0155 15.4688C13.4907 15.4688 15.5447 13.6321 15.8869 11.25H17.3048C16.9539 14.4096 14.2672 16.875 11.0155 16.875V16.875Z" fill="#3C3664"/>
<path d="M20.5916 1.4416C20.3171 1.16701 19.8719 1.16701 19.5973 1.4416C19.3227 1.7162 19.3227 2.16137 19.5973 2.43596C20.968 3.80673 20.968 6.0371 19.5973 7.40782C19.3227 7.68241 19.3227 8.12759 19.5973 8.40218C19.7346 8.53948 19.9145 8.60815 20.0944 8.60815C20.2743 8.60815 20.4543 8.53953 20.5916 8.40218C22.5107 6.48316 22.5107 3.36062 20.5916 1.4416V1.4416Z" fill="#3C3664"/>
<path d="M17.6085 3.43031C17.3339 3.70491 17.3339 4.15008 17.6085 4.42467C17.7413 4.55747 17.8145 4.73405 17.8145 4.92188C17.8145 5.10971 17.7413 5.28624 17.6085 5.41908C17.3339 5.69368 17.3339 6.13885 17.6085 6.41344C17.7458 6.55074 17.9258 6.61941 18.1057 6.61941C18.2856 6.61941 18.4656 6.55079 18.6028 6.41344C19.4253 5.59102 19.4253 4.25278 18.6028 3.43031C18.3283 3.15572 17.8831 3.15572 17.6085 3.43031V3.43031Z" fill="#3C3664"/>
<path d="M2.43404 1.4416C2.15944 1.16701 1.71427 1.16701 1.43968 1.4416C0.511267 2.36996 0 3.60597 0 4.92189C0 6.23782 0.511267 7.47382 1.43968 8.40218C1.57697 8.53948 1.75693 8.60815 1.93683 8.60815C2.11674 8.60815 2.29674 8.53953 2.43399 8.40218C2.70858 8.12759 2.70858 7.68241 2.43399 7.40782C1.77127 6.74505 1.40625 5.86221 1.40625 4.92189C1.40625 3.98158 1.77127 3.09873 2.43404 2.43596C2.70863 2.16137 2.70863 1.7162 2.43404 1.4416V1.4416Z" fill="#3C3664"/>
<path d="M3.92561 6.61935C4.10557 6.61935 4.28552 6.55073 4.42277 6.41338C4.69736 6.13879 4.69736 5.69362 4.42277 5.41902C4.28997 5.28622 4.2168 5.10965 4.2168 4.92182C4.2168 4.73399 4.28997 4.55746 4.42277 4.42461C4.69736 4.15002 4.69736 3.70484 4.42277 3.43025C4.14822 3.15566 3.703 3.15566 3.42841 3.43025C2.60594 4.25267 2.60594 5.59091 3.42841 6.41338C3.56575 6.55073 3.74566 6.61935 3.92561 6.61935V6.61935Z" fill="#3C3664"/>
</svg>
