<svg width="20" height="23" viewBox="0 0 20 23" fill="none" xmlns="http://www.w3.org/2000/svg">
<path d="M12.4515 16.0115C15 14.8552 16.6468 12.3005 16.6468 9.50322C16.6468 7.99299 16.1812 6.54942 15.3001 5.32867C15.1912 5.17787 14.9807 5.14373 14.8297 5.25266C14.6788 5.36156 14.6448 5.57215 14.7537 5.72304C15.5514 6.8283 15.973 8.13548 15.973 9.50326C15.973 12.0369 14.4815 14.3506 12.1732 15.3979C11.7251 15.601 11.4354 16.0472 11.4354 16.5344V18.0604H7.57126V16.5344C7.57126 16.0469 7.28547 15.6025 6.84294 15.4022C4.51734 14.3517 3.02211 12.0248 3.0337 9.4742C3.04943 5.92281 5.95169 3.03357 9.50335 3.03357C11.0642 3.03357 12.5714 3.59702 13.7474 4.62012C13.8878 4.74226 14.1007 4.72753 14.2228 4.5871C14.3449 4.44672 14.3301 4.23393 14.1897 4.11178C12.891 2.98195 11.2267 2.35974 9.50335 2.35974C7.59898 2.35974 5.80848 3.09808 4.46168 4.43877C3.11479 5.77955 2.36832 7.56677 2.35988 9.47114C2.34712 12.2873 3.99795 14.8564 6.56533 16.0161C6.76707 16.1075 6.89748 16.3109 6.89748 16.5344V18.0604H6.78068C6.34472 18.0604 5.99006 18.4153 5.99006 18.8515V19.3959C5.99006 19.8114 6.31246 20.1524 6.72008 20.1835L7.00552 21.9535C7.10336 22.5599 7.62014 23 8.23431 23H8.71722C8.90329 23 9.05413 22.8491 9.05413 22.6631C9.05413 22.477 8.90329 22.3262 8.71722 22.3262H8.23431C7.9526 22.3262 7.7156 22.1243 7.67072 21.8462L7.40307 20.1865H7.93109C8.11715 20.1865 8.268 20.0357 8.268 19.8496C8.268 19.6636 8.11715 19.5127 7.93109 19.5127H6.78064C6.71622 19.5127 6.66384 19.4603 6.66384 19.3959V18.8515C6.66384 18.7868 6.71626 18.7342 6.78064 18.7342H12.2261C12.2905 18.7342 12.3429 18.7868 12.3429 18.8515V19.3959C12.3429 19.4603 12.2904 19.5127 12.2261 19.5127H9.50335C9.31729 19.5127 9.16644 19.6636 9.16644 19.8496C9.16644 20.0357 9.31729 20.1865 9.50335 20.1865H11.6036L11.336 21.8462C11.2911 22.1243 11.0541 22.3262 10.7724 22.3262H10.2895C10.1034 22.3262 9.95257 22.477 9.95257 22.6631C9.95257 22.8491 10.1034 23 10.2895 23H10.7724C11.3866 23 11.9033 22.5599 12.0012 21.9535L12.2866 20.1835C12.6943 20.1524 13.0167 19.8114 13.0167 19.3959V18.8515C13.0167 18.4153 12.662 18.0604 12.2261 18.0604H12.1093V16.5344C12.1093 16.311 12.2436 16.1057 12.4515 16.0115Z" fill="url(#paint0_linear)"/>
<path d="M5.35464 11.3185V13.3151C5.35464 13.5012 5.50549 13.6521 5.69156 13.6521H13.3151C13.5012 13.6521 13.652 13.5012 13.652 13.3151V11.3185C13.652 10.1318 12.6866 9.16643 11.5 9.16643H11.25C11.7773 8.68927 12.1092 7.9999 12.1092 7.23443C12.1092 5.79756 10.9402 4.6286 9.50336 4.6286C8.06649 4.6286 6.89753 5.79756 6.89753 7.23443C6.89753 7.9999 7.22941 8.68927 7.75671 9.16643H7.50672C6.32006 9.16647 5.35464 10.1318 5.35464 11.3185ZM7.57136 7.23447C7.57136 6.16915 8.43804 5.30247 9.50336 5.30247C10.5687 5.30247 11.4354 6.16915 11.4354 7.23447C11.4354 8.29975 10.5687 9.16647 9.50336 9.16647C8.43804 9.16647 7.57136 8.29975 7.57136 7.23447ZM11.5 9.8403C12.3151 9.8403 12.9782 10.5034 12.9782 11.3185V12.9783H11.7461V12.4076C11.7461 12.2215 11.5953 12.0707 11.4092 12.0707C11.2231 12.0707 11.0723 12.2215 11.0723 12.4076V12.9783H7.93433V12.4076C7.93433 12.2215 7.78348 12.0707 7.59741 12.0707C7.41135 12.0707 7.2605 12.2215 7.2605 12.4076V12.9783H6.02843V11.3185C6.02843 10.5034 6.69156 9.8403 7.50663 9.8403H11.5Z" fill="url(#paint1_linear)"/>
<path d="M9.50335 1.58138C9.68942 1.58138 9.84026 1.43054 9.84026 1.24447V0.336914C9.84026 0.150848 9.68942 0 9.50335 0C9.31728 0 9.16644 0.150848 9.16644 0.336914V1.24447C9.16644 1.43054 9.31728 1.58138 9.50335 1.58138Z" fill="url(#paint2_linear)"/>
<path d="M5.08216 2.5194C5.14456 2.62748 5.2578 2.6879 5.37424 2.6879C5.43138 2.6879 5.48933 2.67335 5.54238 2.64271C5.70352 2.54968 5.75873 2.34362 5.66569 2.18249L5.21189 1.39649C5.11886 1.23536 4.91276 1.1801 4.75167 1.27318C4.59054 1.36621 4.53533 1.57227 4.62836 1.7334L5.08216 2.5194Z" fill="url(#paint3_linear)"/>
<path d="M1.39653 5.21188L2.18253 5.66568C2.23558 5.69632 2.29353 5.71087 2.35067 5.71087C2.46711 5.71087 2.58035 5.65041 2.64275 5.54237C2.73578 5.38123 2.68058 5.17518 2.51944 5.08214L1.73344 4.62834C1.57226 4.53526 1.36625 4.59052 1.27322 4.75165C1.18018 4.91283 1.23539 5.11889 1.39653 5.21188Z" fill="url(#paint4_linear)"/>
<path d="M1.58138 9.50336C1.58138 9.31729 1.43054 9.16644 1.24447 9.16644H0.336914C0.150848 9.16644 0 9.31729 0 9.50336C0 9.68942 0.150848 9.84027 0.336914 9.84027H1.24447C1.43054 9.84027 1.58138 9.68942 1.58138 9.50336Z" fill="url(#paint5_linear)"/>
<path d="M2.18253 13.341L1.39653 13.7948C1.23539 13.8878 1.18018 14.0939 1.27322 14.255C1.33561 14.3631 1.44886 14.4235 1.5653 14.4235C1.62244 14.4235 1.68039 14.409 1.73344 14.3783L2.51944 13.9245C2.68058 13.8315 2.73578 13.6254 2.64275 13.4643C2.54972 13.3031 2.34366 13.2479 2.18253 13.341Z" fill="url(#paint6_linear)"/>
<path d="M13.4643 2.64273C13.5174 2.67337 13.5753 2.68792 13.6325 2.68792C13.7489 2.68792 13.8622 2.62746 13.9246 2.51942L14.3784 1.73342C14.4714 1.57229 14.4162 1.36623 14.2551 1.2732C14.0939 1.18008 13.8879 1.23538 13.7948 1.39651L13.341 2.18246C13.248 2.34364 13.3032 2.5497 13.4643 2.64273Z" fill="url(#paint7_linear)"/>
<path d="M16.656 5.71088C16.7132 5.71088 16.7711 5.69632 16.8242 5.66569L17.6102 5.21189C17.7713 5.11885 17.8265 4.9128 17.7335 4.75166C17.6405 4.59048 17.4344 4.53527 17.2733 4.62835L16.4873 5.08215C16.3261 5.17519 16.2709 5.38124 16.364 5.54238C16.4264 5.65046 16.5396 5.71088 16.656 5.71088Z" fill="url(#paint8_linear)"/>
<path d="M18.6698 9.16644H17.7622C17.5762 9.16644 17.4253 9.31729 17.4253 9.50336C17.4253 9.68942 17.5762 9.84027 17.7622 9.84027H18.6698C18.8559 9.84027 19.0067 9.68942 19.0067 9.50336C19.0067 9.31729 18.8559 9.16644 18.6698 9.16644Z" fill="url(#paint9_linear)"/>
<path d="M17.6102 13.7948L16.8242 13.341C16.663 13.2479 16.457 13.3032 16.364 13.4643C16.2709 13.6254 16.3261 13.8315 16.4873 13.9245L17.2733 14.3783C17.3263 14.409 17.3843 14.4235 17.4414 14.4235C17.5578 14.4235 17.6711 14.3631 17.7335 14.255C17.8265 14.0939 17.7713 13.8878 17.6102 13.7948Z" fill="url(#paint10_linear)"/>
<defs>
<linearGradient id="paint0_linear" x1="9.50331" y1="2.35974" x2="9.50331" y2="23" gradientUnits="userSpaceOnUse">
<stop offset="0.9999" stop-color="#3C3664"/>
<stop offset="1" stop-color="white" stop-opacity="0"/>
</linearGradient>
<linearGradient id="paint1_linear" x1="9.50334" y1="4.6286" x2="9.50334" y2="13.6521" gradientUnits="userSpaceOnUse">
<stop offset="0.9999" stop-color="#3C3664"/>
<stop offset="1" stop-color="white" stop-opacity="0"/>
</linearGradient>
<linearGradient id="paint2_linear" x1="9.50335" y1="0" x2="9.50335" y2="1.58138" gradientUnits="userSpaceOnUse">
<stop offset="0.9999" stop-color="#3C3664"/>
<stop offset="1" stop-color="white" stop-opacity="0"/>
</linearGradient>
<linearGradient id="paint3_linear" x1="5.14703" y1="1.22797" x2="5.14703" y2="2.6879" gradientUnits="userSpaceOnUse">
<stop offset="0.9999" stop-color="#3C3664"/>
<stop offset="1" stop-color="white" stop-opacity="0"/>
</linearGradient>
<linearGradient id="paint4_linear" x1="1.95798" y1="4.58313" x2="1.95798" y2="5.71087" gradientUnits="userSpaceOnUse">
<stop offset="0.9999" stop-color="#3C3664"/>
<stop offset="1" stop-color="white" stop-opacity="0"/>
</linearGradient>
<linearGradient id="paint5_linear" x1="0.790692" y1="9.16644" x2="0.790692" y2="9.84027" gradientUnits="userSpaceOnUse">
<stop offset="0.9999" stop-color="#3C3664"/>
<stop offset="1" stop-color="white" stop-opacity="0"/>
</linearGradient>
<linearGradient id="paint6_linear" x1="1.95798" y1="13.2958" x2="1.95798" y2="14.4235" gradientUnits="userSpaceOnUse">
<stop offset="0.9999" stop-color="#3C3664"/>
<stop offset="1" stop-color="white" stop-opacity="0"/>
</linearGradient>
<linearGradient id="paint7_linear" x1="13.8597" y1="1.22797" x2="13.8597" y2="2.68792" gradientUnits="userSpaceOnUse">
<stop offset="0.9999" stop-color="#3C3664"/>
<stop offset="1" stop-color="white" stop-opacity="0"/>
</linearGradient>
<linearGradient id="paint8_linear" x1="17.0487" y1="4.58313" x2="17.0487" y2="5.71088" gradientUnits="userSpaceOnUse">
<stop offset="0.9999" stop-color="#3C3664"/>
<stop offset="1" stop-color="white" stop-opacity="0"/>
</linearGradient>
<linearGradient id="paint9_linear" x1="18.216" y1="9.16644" x2="18.216" y2="9.84027" gradientUnits="userSpaceOnUse">
<stop offset="0.9999" stop-color="#3C3664"/>
<stop offset="1" stop-color="white" stop-opacity="0"/>
</linearGradient>
<linearGradient id="paint10_linear" x1="17.0487" y1="13.2958" x2="17.0487" y2="14.4235" gradientUnits="userSpaceOnUse">
<stop offset="0.9999" stop-color="#3C3664"/>
<stop offset="1" stop-color="white" stop-opacity="0"/>
</linearGradient>
</defs>
</svg>
