<svg width="13" height="18" viewBox="0 0 13 18" fill="none" xmlns="http://www.w3.org/2000/svg">
<path d="M11.4888 18H1.51124C0.62495 18 -0.0719165 17.2443 0.00594545 16.3682L0.925971 6.01815C0.995295 5.23819 1.64241 4.65 2.43127 4.65H3.36436V3.1125C3.36436 1.39624 4.77098 0 6.5 0C8.22902 0 9.63563 1.39624 9.63563 3.1125V4.65H10.5687C10.7356 4.65 10.871 4.78433 10.871 4.95C10.871 5.11568 10.7356 5.25 10.5687 5.25H9.63563V6.6C9.63563 6.76568 9.50031 6.9 9.3334 6.9C9.1665 6.9 9.03117 6.76568 9.03117 6.6V5.25H5.06441C4.8975 5.25 4.76218 5.11568 4.76218 4.95C4.76218 4.78433 4.8975 4.65 5.06441 4.65H9.03117V3.1125C9.03117 1.7271 7.8957 0.6 6.5 0.6C5.1043 0.6 3.96882 1.7271 3.96882 3.1125V6.6C3.96882 6.76568 3.8335 6.9 3.66659 6.9C3.49969 6.9 3.36436 6.76568 3.36436 6.6V5.25H2.43127C1.95797 5.25 1.56968 5.60291 1.52809 6.07091L0.608063 16.4209C0.56118 16.9482 0.978559 17.4 1.51124 17.4H11.4888C12.0221 17.4 12.4388 16.9476 12.3919 16.4209L11.4719 6.07091C11.4572 5.90588 11.5801 5.76026 11.7464 5.74571C11.9126 5.73127 12.0594 5.85315 12.074 6.01819L12.9941 16.3682C13.072 17.2445 12.3749 18 11.4888 18ZM4.76218 15.4125H2.57101C2.4041 15.4125 2.26878 15.5468 2.26878 15.7125C2.26878 15.8782 2.4041 16.0125 2.57101 16.0125H4.76218C4.92908 16.0125 5.06441 15.8782 5.06441 15.7125C5.06441 15.5468 4.92908 15.4125 4.76218 15.4125ZM4.76218 13.9125H2.57101C2.4041 13.9125 2.26878 14.0468 2.26878 14.2125C2.26878 14.3782 2.4041 14.5125 2.57101 14.5125H4.76218C4.92908 14.5125 5.06441 14.3782 5.06441 14.2125C5.06441 14.0468 4.92908 13.9125 4.76218 13.9125Z" fill="url(#paint0_linear)"/>
<defs>
<linearGradient id="paint0_linear" x1="6.5" y1="0" x2="6.5" y2="18" gradientUnits="userSpaceOnUse">
<stop offset="0.9999" stop-color="#3C3664"/>
<stop offset="1" stop-color="white" stop-opacity="0"/>
</linearGradient>
</defs>
</svg>
