<svg width="30" height="30" viewBox="0 0 30 30" fill="none" xmlns="http://www.w3.org/2000/svg">
<path d="M15.0069 30C12.0396 30.0014 9.13852 29.1226 6.67073 27.4749C4.20294 25.8272 2.27929 23.4846 1.14313 20.7434C0.00696302 18.0023 -0.290667 14.9857 0.287892 12.0753C0.866452 9.16498 2.2952 6.49161 4.3934 4.39341C6.4916 2.29521 9.16497 0.866452 12.0753 0.287892C14.9857 -0.290667 18.0023 0.00696302 20.7434 1.14313C23.4846 2.27929 25.8272 4.20295 27.4749 6.67074C29.1226 9.13853 30.0014 12.0396 30 15.0069C29.9964 18.9822 28.4156 22.7936 25.6046 25.6046C22.7936 28.4156 18.9822 29.9964 15.0069 30ZM15.0069 5.50138C13.1266 5.50002 11.2881 6.05636 9.72403 7.10001C8.15995 8.14366 6.94054 9.62773 6.22004 11.3645C5.49954 13.1013 5.31032 15.0128 5.67632 16.8571C6.04231 18.7014 6.94708 20.3958 8.27617 21.7258C9.60526 23.0559 11.299 23.9619 13.143 24.3292C14.9871 24.6965 16.8987 24.5087 18.636 23.7895C20.3733 23.0702 21.8583 21.8519 22.903 20.2886C23.9478 18.7252 24.5055 16.8872 24.5055 15.0069C24.5037 12.4876 23.5026 10.0719 21.7218 8.28991C19.9411 6.50788 17.5261 5.50501 15.0069 5.50138Z" fill="#E5E5E5"/>
</svg>
