<svg width="100" height="42" viewBox="0 0 100 42" fill="none" xmlns="http://www.w3.org/2000/svg">
<path d="M99.9946 38.7317C99.872 37.0284 98.8605 35.9606 97.0291 35.9443L90.6582 35.9413L90.9876 35.6616C91.1397 35.5305 91.3049 35.4125 91.462 35.2854C93.6582 33.4997 96.0501 31.9377 97.8358 29.6842C100.346 26.5135 100.222 21.7869 97.5176 18.8989C95.9518 17.2271 93.9055 16.5671 91.6819 16.4115C88.1478 16.1623 85.1276 17.2515 82.7955 19.992C81.6766 21.31 81.7395 23.1251 82.8655 24.1604C84.1597 25.3481 85.8755 25.2657 87.2063 23.9692C87.6411 23.5461 88.0829 23.119 88.5775 22.7753C89.735 21.9699 91.5329 22.0035 92.3852 22.7936C93.3308 23.6692 93.4464 25.1935 92.6498 26.5633C92.4602 26.8857 92.216 27.1775 91.9748 27.4653C91.2633 28.3104 90.415 29.012 89.5687 29.7107C87.1181 31.7374 84.6391 33.7336 82.2107 35.7877C81.0401 36.7782 80.7118 38.1154 81.1567 39.5645C81.557 40.8672 82.7378 41.5557 84.3806 41.5597C88.6029 41.5699 92.8261 41.5414 97.0473 41.578C98.752 41.5882 100.097 40.1543 99.9946 38.7317Z" fill="#CCCCCF"/>
<path d="M37.6462 17.4393C36.0033 16.9186 34.3077 16.7986 32.5939 16.8566C30.1706 16.939 27.8517 17.4718 25.6321 18.445C24.9348 18.7501 24.5355 19.3023 24.5173 20.0639C24.5 20.8012 24.8892 21.3381 25.545 21.6381C26.1348 21.9086 26.7216 21.7734 27.2993 21.5212C29.3456 20.6314 31.4881 20.2327 33.7148 20.3558C37.4607 20.5602 39.5759 22.5472 39.7917 26.0332C39.8607 27.1487 39.8667 27.1203 38.7985 26.8864C35.1154 26.0759 31.4233 25.7851 27.7585 26.9566C24.6338 27.9541 22.7315 30.3215 22.5521 33.3112C22.3443 36.7626 23.7845 39.2164 26.9284 40.6757C30.426 42.3018 36.0185 42.1838 39.8495 37.9565C39.8495 38.6592 39.812 39.1453 39.8566 39.6242C39.959 40.7194 40.6998 41.3916 41.7346 41.3743C42.7805 41.355 43.5772 40.5791 43.5792 39.4788C43.5863 34.8102 43.6349 30.1395 43.5397 25.4739C43.4586 21.5018 41.237 18.5782 37.6462 17.4393ZM37.2884 36.9691C34.5225 38.7344 31.5783 39.0893 28.5895 37.5497C27.0348 36.7484 26.3466 35.3471 26.4612 33.5919C26.5889 31.6211 27.7595 30.4415 29.5037 29.7693C30.7868 29.2741 32.1358 29.1449 33.1503 29.1938C35.4773 29.21 37.412 29.4937 39.3154 30.0103C39.5728 30.0795 39.8779 30.051 39.9063 30.4883C40.0755 33.0804 39.6539 35.459 37.2884 36.9691Z" fill="#CCCCCF"/>
<path d="M18.8417 35.3763C18.6015 35.5848 18.3694 35.8034 18.1211 36.0038C15.4232 38.1637 12.4435 38.8308 9.20738 37.4692C5.1777 35.775 3.13348 31.1663 4.30305 26.6563C5.32973 22.6914 8.49185 20.144 12.3513 20.1572C14.7147 20.1664 16.609 21.2342 18.3269 22.7473C19.3312 23.633 20.4917 23.6015 21.2376 22.7209C21.9673 21.8575 21.8184 20.7806 20.817 19.901C18.3978 17.7726 15.5874 16.6591 12.3553 16.6621C11.7209 16.6774 11.0905 16.7089 10.458 16.8096C4.1338 17.8163 -0.210061 23.2598 0.00784197 29.9298C0.204461 35.9356 5.0794 41.0792 11.1543 41.6314C15.0745 41.9883 18.4333 40.7192 21.2184 37.9339C21.9937 37.157 22.014 36.1177 21.2974 35.3774C20.5697 34.632 19.7052 34.6299 18.8417 35.3763Z" fill="#CCCCCF"/>
<path d="M75.8581 14.401C77.1797 15.1892 78.5753 15.7952 80.0601 16.2091C80.6935 16.385 81.1263 16.2335 81.4151 15.6366C81.5013 15.4576 81.626 15.2939 81.7537 15.1403C83.7259 12.7445 83.3783 9.18734 80.8547 8.33924C81.4151 7.89891 81.4182 7.31826 81.255 6.70302C81.1212 6.19965 81.03 5.67696 80.8375 5.19799C80.4006 4.1099 80.2466 2.98011 80.1817 1.82083C80.1432 1.12831 80.0986 0.316817 79.3344 0.0615721C78.5915 -0.187571 78.025 0.365626 77.5578 0.892387C75.9889 2.6669 75.096 4.79123 74.4666 7.04267C74.1504 8.17653 73.8707 9.32361 73.5524 10.551C73.2707 10.2632 73.067 9.8402 72.768 9.78935C72.6474 9.46902 72.1386 7.91315 72.917 6.56879C72.9332 6.56167 72.9443 6.55049 72.9555 6.53829L73.1034 6.34914C73.145 6.29626 73.1349 6.22202 73.0822 6.18033C73.0305 6.13864 72.9555 6.14779 72.9149 6.20169L72.767 6.39083C72.7396 6.42541 72.7365 6.47015 72.7517 6.50879C72.0382 7.76773 72.3849 9.18836 72.5551 9.71105C72.1964 9.18429 71.3531 8.18365 70.0508 7.95586C70.0295 7.9223 69.993 7.8979 69.9504 7.8979H69.7133C69.6474 7.8979 69.5927 7.95179 69.5927 8.01789C69.5927 8.08297 69.6464 8.13687 69.7133 8.13687H69.9504C69.9707 8.13687 69.9869 8.13077 70.0031 8.12263C71.3085 8.34025 72.1345 9.38462 72.4518 9.86765C72.1274 10.0934 72.5572 10.5358 72.5186 10.9547C70.8302 9.69071 69.0575 8.73481 67.215 7.91112C65.5549 7.16979 63.911 6.37863 62.1151 6.00847C61.7137 5.9261 61.285 5.91695 61.0529 6.35727C60.8391 6.76099 60.9749 7.15453 61.2131 7.50028C61.3438 7.68943 61.509 7.8684 61.6965 7.99755C63.7671 9.42631 65.3492 11.3452 66.9697 13.2316C67.3488 13.6729 67.7319 14.1072 68.3836 14.1397C68.5954 14.1489 68.7707 14.2516 68.7616 14.519C68.7616 14.5536 68.7616 14.5882 68.7626 14.6248C68.8021 15.3275 68.9734 15.9 69.4194 16.5671C70.5798 17.9877 72.0332 19.0188 73.7095 19.7185C74.048 19.8598 74.3308 19.931 74.5679 19.931C75.1487 19.931 75.4335 19.4907 75.5156 18.5867C75.5399 17.3521 75.1598 16.1847 74.7848 15.0488C75.0828 14.817 75.2227 15.2542 75.4537 15.1048C75.6534 14.8231 75.2693 14.5261 75.4689 14.1844C75.6159 14.2648 75.7385 14.3319 75.8581 14.401ZM78.2105 2.23268C78.4567 2.23268 78.6544 2.43199 78.6544 2.67809C78.6544 2.92316 78.4567 3.12349 78.2105 3.12349C77.9652 3.12349 77.7666 2.92316 77.7666 2.67809C77.7655 2.43098 77.9652 2.23268 78.2105 2.23268ZM77.202 4.39769C77.5608 4.39769 77.8527 4.68954 77.8527 5.05156C77.8527 5.41155 77.5618 5.70442 77.202 5.70442C76.8422 5.70442 76.5514 5.41155 76.5514 5.05156C76.5524 4.68954 76.8412 4.39769 77.202 4.39769ZM76.4115 6.98776C76.902 6.98776 77.3003 7.38842 77.3003 7.87959C77.3003 8.37178 76.902 8.77142 76.4115 8.77142C75.921 8.77142 75.5216 8.37178 75.5216 7.87959C75.5216 7.38842 75.9199 6.98776 76.4115 6.98776ZM65.4698 8.55584C65.3816 8.6616 65.1708 8.62905 64.9995 8.48465C64.8272 8.33923 64.7593 8.13687 64.8475 8.03314C64.9356 7.92739 65.1465 7.95993 65.3177 8.10433C65.489 8.24771 65.5579 8.45008 65.4698 8.55584ZM68.5133 10.2419C68.3826 10.3985 68.0684 10.3507 67.812 10.1361C67.5545 9.92053 67.4532 9.61648 67.5839 9.45987C67.7147 9.30327 68.0299 9.35106 68.2863 9.56563C68.5427 9.7802 68.643 10.0843 68.5133 10.2419ZM71.7778 12.1608C71.6136 12.3581 71.2163 12.2991 70.893 12.0255C70.5697 11.753 70.441 11.3717 70.6072 11.1744C70.7734 10.9781 71.1697 11.0371 71.493 11.3096C71.8153 11.5822 71.944 11.9635 71.7778 12.1608Z" fill="#CCCCCF"/>
<path d="M74.5672 20.2756C74.2875 20.2756 73.9622 20.1973 73.576 20.0367C71.7943 19.2953 70.3044 18.2001 69.1501 16.7876C69.1501 16.7876 69.0538 16.6646 69.0497 16.6514C66.9001 16.7093 64.9025 17.2361 63.1238 18.491C58.9847 21.4105 57.3377 25.5239 57.7796 30.4783C58.2235 35.4622 60.6701 39.1912 65.4295 40.9017C70.3399 42.663 74.8713 41.7122 78.7104 38.0319C79.4361 37.3354 79.4705 36.41 78.8533 35.6961C78.2442 34.9924 77.2175 34.9192 76.4432 35.5253C75.9425 35.9168 75.4652 36.3429 74.9382 36.6937C69.6953 40.2051 63.0346 37.6272 61.8093 31.6335C61.6613 30.9146 61.71 30.6014 62.611 30.6105C67.7839 30.6593 72.9578 30.637 78.1317 30.6319C79.6935 30.6298 80.3979 29.8895 80.331 28.3194C80.3097 27.8282 80.257 27.3361 80.182 26.849C79.6884 23.6487 78.4185 20.8858 75.8331 18.8764C75.7571 19.4133 75.5169 20.2756 74.5672 20.2756ZM76.4057 27.6523C76.4057 27.6523 70.8051 27.6523 68.9828 27.6523C66.8139 27.6533 63.8099 27.6208 61.642 27.6737L61.7829 26.8022C62.4235 23.2806 64.9065 20.6102 68.0676 20.1068C71.7588 19.5191 74.852 21.6373 75.9952 25.5341C75.9932 25.5331 76.3854 27.0096 76.4057 27.6523Z" fill="#CCCCCF"/>
<path d="M59.6928 18.5102C59.558 17.4709 58.7715 16.8302 57.6131 16.8526C56.0878 16.8841 54.7499 17.4729 53.5135 18.32C52.0327 19.3329 50.9199 20.6904 49.8456 22.1629C49.8456 21.1267 49.8446 20.0935 49.8456 19.0573C49.8456 18.678 49.8243 18.3099 49.6328 17.9621C49.199 17.178 48.3092 16.7906 47.4142 17.0082C46.5771 17.2126 45.9842 17.9743 45.9822 18.9434C45.973 25.7323 45.9761 32.5212 45.9791 39.3091C45.9791 39.5389 45.9984 39.7758 46.0632 39.9935C46.3247 40.8761 47.2277 41.4619 48.1328 41.3602C49.1179 41.2493 49.8223 40.5223 49.8324 39.4931C49.8578 36.7953 49.8426 34.0964 49.8476 31.3975C49.8598 25.232 53.1334 21.1806 58.1259 20.7423C59.2458 20.6477 59.8377 19.6135 59.6928 18.5102Z" fill="#CCCCCF"/>
<path d="M86.8871 9.37891C87.33 10.5178 87.9827 10.768 89.0783 10.3236C89.4371 10.1782 89.809 9.63415 90.1648 9.91177C90.5175 10.1874 89.883 10.645 89.9327 11.01C89.9398 11.0487 89.9935 11.1585 90.1628 11.13C90.332 11.1005 90.7931 9.94329 90.8975 9.93618C91.0131 9.92906 90.9229 10.4111 90.9604 10.6216C91.0455 11.1239 90.6249 12.1307 91.2715 12.2964C91.9566 12.4734 92.3306 11.7188 92.6266 11.1473C92.7188 10.9683 92.8374 10.7161 92.8637 10.5199C92.9043 10.2158 93.0826 9.8955 93.3147 9.68398C93.8235 9.22128 94.2755 8.63453 94.7042 8.09353C94.9303 7.80981 95.1988 7.44779 94.9799 7.06441C94.7721 6.70239 94.3546 6.86103 94.0232 6.85493C93.6786 6.84883 93.1789 6.83866 92.9337 7.0817C92.7299 7.28204 92.5293 7.23932 92.3296 7.16001C93.3482 5.64176 94.8988 5.55837 94.9151 5.55837L94.908 5.38346C94.8411 5.38651 93.2357 5.46786 92.1664 7.09187C92.1381 7.07865 92.1077 7.06747 92.0783 7.05628C92.807 5.22584 91.9313 3.84589 91.8938 3.78792L91.7479 3.88351C91.757 3.89673 92.6134 5.24618 91.9141 6.9973L91.9962 7.02984C91.8533 6.98916 91.7134 6.99018 91.5715 7.11221C91.5634 7.11933 91.3698 6.95459 91.3526 6.78273C91.1529 4.83331 89.808 3.59268 88.5959 2.24222C88.3587 1.97884 88.0729 1.59851 87.6462 1.84562C87.2094 2.09883 87.025 2.56763 87.1567 3.04558C87.331 3.67911 87.328 4.30553 87.2692 4.94008C87.2236 5.44752 87.2783 5.91124 87.7344 6.23156C86.5273 7.17627 86.3267 7.93286 86.8871 9.37891Z" fill="#CCCCCF"/>
</svg>
