<svg width="100" height="42" viewBox="0 0 100 42" fill="none" xmlns="http://www.w3.org/2000/svg">
<path d="M63.0759 21.3762C64.0259 20.9234 65.0873 20.6981 66.2565 20.6981C67.1043 20.6981 67.8207 20.801 68.4126 21.008C69.0089 21.215 69.4939 21.4928 69.8722 21.8416C70.1637 22.1092 70.3917 22.4065 70.5619 22.7347L70.9624 21.0229H72.857C72.857 21.0229 72.9483 20.2133 73.6914 19.2368C75.2267 17.9549 77.3738 17.8932 77.3738 17.8932L76.8487 21.0206H79.8992L79.2083 24.0268H76.209L75.1799 28.9689C75.1621 29.081 75.141 29.201 75.1165 29.3291C75.0921 29.4572 75.0665 29.5875 75.0476 29.7167C75.0253 29.8437 75.0064 29.9672 74.9886 30.0827C74.973 30.1993 74.9652 30.2953 74.9652 30.372C74.9652 30.7173 74.8028 31.6332 75.4547 32.0952C76.4938 32.6017 78.3384 31.5143 78.6298 31.2227C78.9102 29.0444 79.4798 26.1274 79.4798 26.1274C79.5643 25.7226 79.6456 25.3052 79.7268 24.8753C79.8058 24.4464 79.8825 24.0222 79.9526 23.6048C80.0227 23.1886 80.0861 22.785 80.1406 22.3973C80.1963 22.0108 80.2396 21.6586 80.2708 21.3385C80.2708 21.3385 83.447 20.7347 84.2469 21.4414C84.4449 21.741 83.9732 23.3487 83.9443 23.5454C83.9176 23.7444 83.8931 23.8987 83.8753 24.0096H83.9231C85.7076 20.3288 88.7203 21.0618 88.8861 21.0858L87.9538 25.0948C87.9538 25.0948 84.0333 22.8799 82.7973 29.6893C82.3935 33.409 82.4135 34.5525 82.4135 34.5525H79.3274C79.3274 34.5525 78.4763 34.3375 78.4763 32.9917C78.4763 32.7332 78.4997 32.3982 78.5364 32.0197C78.2193 32.8041 77.3327 33.9259 75.0442 34.4736C74.5425 34.5514 74.4891 34.5262 74.2199 34.5262C73.5846 34.5262 73.0551 34.4416 72.6256 34.2735C72.1995 34.1066 71.858 33.871 71.6021 33.5771C71.3474 33.2798 71.1649 32.9345 71.0637 32.5388C70.958 32.1432 70.9046 31.711 70.9046 31.2479C70.9046 31.1095 70.9146 30.9506 70.9302 30.7699C70.948 30.5904 70.9691 30.4051 70.9992 30.2164C71.027 30.0255 71.0626 29.8345 71.0993 29.6413C71.136 29.448 71.1727 29.2696 71.2072 29.1061L72.2363 24.0234H70.9369C70.9524 24.1549 70.9591 24.2864 70.9591 24.4236C70.9591 25.1028 70.8189 25.7283 70.5375 26.2955C70.2593 26.8626 69.7899 27.3543 69.1313 27.7648C68.4749 28.1788 67.6038 28.5035 66.5124 28.7414C65.4255 28.9781 64.0693 29.1096 62.4462 29.1359C62.4284 29.1873 62.4228 29.2319 62.4228 29.2708C62.4228 29.3097 62.4228 29.3485 62.4228 29.3931C62.4228 29.6584 62.464 29.9271 62.5441 30.1924C62.6286 30.4589 62.7744 30.7001 62.9791 30.9163C63.186 31.1312 63.4541 31.3062 63.7901 31.4388C64.1238 31.5726 64.4042 31.6355 64.9048 31.6355C65.2063 31.6355 65.6736 31.6115 66.0318 31.5555L68.1389 31.2559C68.5027 31.1038 69.5807 30.978 69.8911 30.7973C69.8911 30.7973 69.6519 32.811 67.7206 33.871C67.3835 34.0002 67.0253 34.1169 66.6359 34.2198C66.2443 34.3227 65.8282 34.4062 65.391 34.4656C64.9516 34.5262 64.5021 34.5559 64.0438 34.5559C63.0725 34.5559 62.2381 34.4096 61.5428 34.1169C60.8508 33.8241 60.2779 33.4308 59.8285 32.9368C59.3823 32.4417 59.0553 31.8642 58.8439 31.1998C58.7215 30.8042 58.6336 30.3937 58.5836 29.9694L58.2698 35.4948H54.2181C54.2181 35.4948 52.6606 35.5862 52.6606 34.2141C52.6606 32.8419 53.4171 19.6621 53.4171 19.6621L46.742 34.899C46.742 34.899 46.3415 35.4959 43.7572 35.4959C41.1761 35.4959 40.6866 35.1746 40.5965 33.3427C40.5086 31.512 40.641 18.7451 40.641 18.7451C40.641 18.7451 35.3433 33.9831 35.2543 34.349C35.1664 34.7149 34.4088 35.4948 33.6968 35.4948C33.0704 35.4948 31.2181 35.4925 30.7786 35.4925C30.7186 35.4925 30.6841 35.4925 30.6841 35.4925L30.7019 35.4364C29.1577 34.2735 19.9072 27.1153 19.9072 27.1153L8.68535 35.4948L12.9718 21.9365L1.7522 13.5582H15.6218L19.9106 0L24.1948 13.5582H38.0411L38.0489 13.5319H44.3423C44.3423 13.5319 46.1212 12.9488 46.1212 15.3146C46.1212 17.6816 46.1212 27.0776 46.1212 27.0776L51.508 14.5393C51.508 14.5393 51.8206 13.4679 53.4683 13.4679C55.1159 13.4679 59.5214 13.4679 59.5214 13.4679L58.7549 27.0147C58.8417 26.6259 58.9507 26.2463 59.0831 25.8712C59.448 24.857 59.9653 23.9662 60.6384 23.2023C61.3114 22.4373 62.1247 21.8279 63.0759 21.3762ZM38.0311 13.5845L26.8437 21.9388C26.8437 21.9388 16.9068 17.031 4.33656 13.9928C22.1534 20.7576 26.0928 27.1748 30.7241 35.3907L38.0311 13.5845ZM63.156 25.3246C62.9546 25.7249 62.8055 26.1582 62.7065 26.6225C64.2117 26.6408 65.3354 26.4624 66.0741 26.0931C66.815 25.7226 67.1866 25.1863 67.1866 24.4807C67.1866 24.1629 67.0709 23.8964 66.8406 23.6872C66.6103 23.4756 66.2866 23.3704 65.8671 23.3704C65.4989 23.3704 65.1462 23.4528 64.8058 23.6151C64.4676 23.7787 64.1583 24.0062 63.878 24.2944C63.5976 24.5825 63.3573 24.9244 63.156 25.3246ZM100 26.2474C100 26.8592 99.9433 27.4892 99.8354 28.133C99.7219 28.7791 99.5483 29.4114 99.3091 30.0266C99.07 30.643 98.7596 31.2273 98.3813 31.7784C98.0042 32.3284 97.5469 32.8087 97.0107 33.2192C96.4734 33.6274 95.8503 33.9545 95.1461 34.1958C94.4397 34.437 93.6376 34.5571 92.7364 34.5571C91.8309 34.5571 91.041 34.4142 90.3657 34.1294C89.6937 33.8447 89.1375 33.4536 88.6992 32.9539C88.2619 32.4542 87.9338 31.8642 87.719 31.1781C87.5043 30.492 87.3975 29.7545 87.3975 28.962C87.3975 28.3228 87.4565 27.6756 87.5755 27.017C87.6946 26.3583 87.8803 25.7214 88.1307 25.1097C88.3843 24.499 88.7036 23.9239 89.093 23.3853C89.4824 22.8467 89.9507 22.3779 90.4925 21.9765C91.0321 21.5763 91.6506 21.2596 92.3482 21.0274C93.0457 20.7953 93.8267 20.6787 94.6967 20.6787C95.55 20.6787 96.3009 20.8102 96.9595 21.072C97.6159 21.335 98.171 21.7112 98.6216 22.1949C99.0677 22.6832 99.4126 23.2675 99.6473 23.9525C99.8821 24.6397 100 25.4035 100 26.2474ZM96.1886 26.2989C96.1886 25.9387 96.1507 25.6048 96.0717 25.2983C95.9928 24.9919 95.8726 24.7289 95.7191 24.5105C95.5633 24.2921 95.3742 24.1183 95.1506 23.9925C94.9292 23.8678 94.6666 23.805 94.3763 23.805C93.8745 23.805 93.4262 23.9593 93.0301 24.2704C92.6363 24.5802 92.3048 24.9816 92.0333 25.4721C91.7619 25.9627 91.555 26.5139 91.4126 27.1256C91.2679 27.7374 91.199 28.3491 91.199 28.9609C91.199 29.7442 91.3647 30.3502 91.7052 30.7813C92.0445 31.2136 92.4828 31.4285 93.0268 31.4285C93.5441 31.4285 94.0003 31.2764 94.3941 30.9757C94.789 30.6727 95.1183 30.2805 95.3875 29.7934C95.6523 29.3062 95.8548 28.7574 95.9894 28.1456C96.1229 27.5338 96.1886 26.9198 96.1886 26.2989ZM65.4789 40.6964C64.3163 40.6964 63.7623 39.8102 63.7623 38.6553C63.7623 37.4775 64.4164 36.6771 65.4444 36.6771C65.9506 36.6771 66.2721 36.7732 66.5703 36.9069L66.7205 35.6194C66.2621 35.4867 65.7782 35.4136 65.1106 35.4136C63.1204 35.4136 62.0301 36.8463 62.0301 38.6553C62.0301 40.5615 63.0825 41.9588 65.173 41.9588C65.8527 41.9588 66.3489 41.8994 66.8306 41.753L66.7549 40.4037C66.4712 40.5261 65.9506 40.6964 65.4789 40.6964ZM72.58 40.4163C72.5923 40.8897 72.6167 41.3265 72.6535 41.8136H71.1938C71.1326 41.4854 71.1326 41.0726 71.1204 40.8783H71.0971C70.7121 41.5701 69.8844 41.9588 69.1301 41.9588C68.0032 41.9588 66.9007 41.2933 66.9007 40.1007C66.9007 39.1676 67.359 38.6199 67.9898 38.3157C68.6217 38.0115 69.4383 37.9521 70.1314 37.9521H71.0448C71.0448 36.9435 70.5897 36.6028 69.6107 36.6028C68.9043 36.6028 68.2001 36.8703 67.6449 37.2831L67.5927 35.8858C68.2368 35.5965 69.1012 35.4136 69.8076 35.4136C71.7501 35.4136 72.5533 36.2026 72.5533 38.0481V38.8509C72.5555 39.4843 72.5689 39.9555 72.58 40.4163ZM71.0459 38.924H70.3272C69.584 38.924 68.486 39.0441 68.486 40.0035C68.486 40.5386 68.941 40.7685 69.5351 40.7685C70.0424 40.7685 70.4384 40.5512 70.6977 40.2105C70.9736 39.8571 71.0459 39.4089 71.0459 38.924ZM77.3538 35.4627C77.1802 35.4147 77.0067 35.4147 76.8465 35.4147C75.8564 35.4147 75.1777 36.3969 75.1032 36.9813H75.0776V35.5599H73.6069V41.8159H75.2645V39.5187C75.2645 38.6199 75.2645 36.9698 76.6118 36.9698C76.9099 36.9698 77.2069 37.019 77.3549 37.1036V35.4627H77.3538ZM83.0298 40.4163C83.0432 40.8897 83.0687 41.3265 83.1055 41.8136H81.6459C81.5813 41.4854 81.5813 41.0726 81.5724 40.8783H81.5479C81.1641 41.5701 80.3353 41.9588 79.5821 41.9588C78.4541 41.9588 77.3527 41.2933 77.3527 40.1007C77.3527 39.1676 77.811 38.6199 78.4418 38.3157C79.0726 38.0115 79.8892 37.9521 80.5823 37.9521H81.4968C81.4968 36.9435 81.0384 36.6028 80.0628 36.6028C79.3563 36.6028 78.6521 36.8703 78.0936 37.2831L78.0435 35.8858C78.6888 35.5965 79.5532 35.4136 80.2574 35.4136C82.2021 35.4136 83.0042 36.2026 83.0042 38.0481V38.8509C83.0053 39.4843 83.0187 39.9555 83.0298 40.4163ZM81.4968 38.924H80.7781C80.0372 38.924 78.9369 39.0441 78.9369 40.0035C78.9369 40.5386 79.3919 40.7685 79.9871 40.7685C80.4955 40.7685 80.8893 40.5512 81.1497 40.2105C81.4211 39.8571 81.4968 39.4089 81.4968 38.924ZM87.0627 40.6964C85.9001 40.6964 85.3416 39.8102 85.3416 38.6553C85.3416 37.4775 85.9991 36.6771 87.0237 36.6771C87.5321 36.6771 87.8525 36.7732 88.1518 36.9069L88.2998 35.6194C87.8436 35.4867 87.3608 35.4136 86.6922 35.4136C84.7008 35.4136 83.6128 36.8463 83.6128 38.6553C83.6128 40.5615 84.6619 41.9588 86.7523 41.9588C87.4331 41.9588 87.9293 41.8994 88.4099 41.753L88.3365 40.4037C88.0506 40.5261 87.531 40.6964 87.0627 40.6964ZM94.1605 40.4163C94.1738 40.8897 94.1961 41.3265 94.2328 41.8136H92.7732C92.7109 41.4854 92.7109 41.0726 92.6997 40.8783H92.6764C92.2903 41.5701 91.4637 41.9588 90.7083 41.9588C89.5814 41.9588 88.4822 41.2933 88.4822 40.1007C88.4822 39.1676 88.9383 38.6199 89.5691 38.3157C90.2021 38.0115 91.0187 37.9521 91.7118 37.9521H92.6274C92.6274 36.9435 92.1679 36.6028 91.1912 36.6028C90.4869 36.6028 89.7805 36.8703 89.2254 37.2831L89.1753 35.8858C89.8161 35.5965 90.6828 35.4136 91.387 35.4136C93.3294 35.4136 94.1338 36.2026 94.1338 38.0481V38.8509C94.1349 39.4843 94.1482 39.9555 94.1605 40.4163ZM92.6285 38.924H91.9099C91.1689 38.924 90.0664 39.0441 90.0664 40.0035C90.0664 40.5386 90.5248 40.7685 91.1189 40.7685C91.6251 40.7685 92.0222 40.5512 92.2825 40.2105C92.5507 39.8571 92.6285 39.4089 92.6285 38.924ZM96.4734 37.298C96.4734 36.7629 97.0062 36.6051 97.4512 36.6051C98.0553 36.6051 98.4291 36.7023 98.9342 36.8715L99.0466 35.6457C98.527 35.5359 98.0209 35.4158 97.241 35.4158C95.9416 35.4158 94.7445 36.0105 94.7445 37.3586C94.7445 39.617 97.6248 38.7788 97.6248 40.0035C97.6248 40.6107 96.9562 40.7685 96.5368 40.7685C95.9649 40.7685 95.422 40.6107 94.9014 40.3557L94.8024 41.6913C95.4098 41.8502 96.0517 41.9588 96.6836 41.9588C98.032 41.9588 99.3514 41.3745 99.3514 39.9177C99.3536 37.6605 96.4734 38.2917 96.4734 37.298Z" fill="#CCCCCF"/>
</svg>
