<svg width="100" height="44" viewBox="0 0 100 44" fill="none" xmlns="http://www.w3.org/2000/svg">
<path d="M7.37097 14.6924C10.12 14.6924 12.749 16.4818 14.224 18.5092C14.383 18.7078 14.543 19.0259 14.543 19.384V19.4234C14.543 20.6159 12.47 21.0139 11.314 21.4108C3.06703 24.2326 2.828 24.1935 2.828 24.5511C2.828 25.0287 3.705 30.3162 8.724 30.3162C10.478 30.3162 12.232 29.5612 13.467 28.3693C13.665 28.1707 13.985 27.8123 14.383 27.8123C14.742 27.8123 15.021 28.05 15.021 28.4081C15.021 28.5679 14.941 28.8059 14.742 29.0435C13.108 31.1508 10.518 32.5821 7.69 32.5821C4.422 32.5815 0 30.4355 0 23.6377C0 18.072 3.38597 14.6924 7.37097 14.6924ZM6.49298 16.8793C4.18298 16.8793 2.66901 19.0262 2.66901 22.5645C2.66901 22.8025 2.78798 22.843 2.86798 22.843C2.98798 22.843 10.24 20.0198 10.319 19.981C10.558 19.8611 10.677 19.6625 10.677 19.5033C10.677 19.0259 8.72398 16.8793 6.49298 16.8793Z" fill="#CCCCCF"/>
<path d="M22.6299 32.0651C22.5099 32.0651 20.8759 31.826 18.8839 31.826C16.9719 31.826 15.4179 32.0237 15.2979 32.0237C14.7799 32.0237 14.741 31.5866 14.741 31.3095V31.1899C14.741 30.4349 15.019 30.4737 16.374 30.3148C17.409 30.1958 17.4899 29.6003 17.4899 28.8045V8.57061C17.4899 7.97366 17.2509 7.97366 16.5729 7.57618C14.9789 6.62198 14.4619 6.46305 14.4619 6.02618V5.98566C14.4619 5.6675 14.5409 5.74826 19.3619 3.24321C19.4809 3.16331 19.641 3.08398 19.84 3.08398C20.318 3.08398 20.3979 3.48147 20.3979 3.83929V29.0033C20.3979 30.276 20.8359 30.1961 22.4299 30.4746C22.9089 30.5533 23.1079 30.7525 23.1079 31.2696C23.1069 31.7475 23.0279 32.0651 22.6299 32.0651Z" fill="#CCCCCF"/>
<path d="M30.3983 14.6924C33.1473 14.6924 35.7773 16.4818 37.2513 18.5092C37.4113 18.7078 37.5703 19.0259 37.5703 19.384V19.4234C37.5703 20.6159 35.4983 21.0139 34.3423 21.4108C26.0953 24.2326 25.8563 24.1935 25.8563 24.5511C25.8563 25.0287 26.7323 30.3162 31.7533 30.3162C33.5063 30.3162 35.2593 29.5612 36.4953 28.3693C36.6933 28.1707 37.0133 27.8123 37.4113 27.8123C37.7703 27.8123 38.0483 28.05 38.0483 28.4081C38.0483 28.5679 37.9693 28.8059 37.7703 29.0435C36.1363 31.1508 33.5463 32.5821 30.7173 32.5821C27.4493 32.5821 23.0283 30.436 23.0283 23.6383C23.0273 18.072 26.4153 14.6924 30.3983 14.6924ZM29.5213 16.8793C27.2113 16.8793 25.6973 19.0262 25.6973 22.5645C25.6973 22.8025 25.8173 22.843 25.8963 22.843C26.0153 22.843 33.2683 20.0198 33.3473 19.981C33.5853 19.8611 33.7053 19.6625 33.7053 19.5033C33.7053 19.0259 31.7533 16.8793 29.5213 16.8793Z" fill="#CCCCCF"/>
<path d="M44.3818 14.613C47.2508 14.613 48.5258 16.0443 49.4028 16.0443C50.1588 16.0443 50.9568 15.5273 51.4738 14.7717C51.6728 14.4538 51.9917 13.8574 52.6307 13.8574C53.3877 13.8574 54.1448 14.6918 54.1448 15.4876C54.1448 17.0376 51.6338 17.5943 51.2758 17.8731C51.1968 17.9521 51.1168 18.0717 51.1168 18.1904C51.1168 18.4287 51.5547 19.184 51.5547 20.6952C51.5547 24.3524 48.6857 27.374 44.9407 27.374C43.6257 27.374 43.1478 27.0153 42.6298 27.0153C41.9118 27.0153 40.8358 28.1689 40.8358 29.0424C40.8358 31.4287 47.4908 30.3552 50.5988 31.2692C53.1088 31.9848 54.2238 33.9335 54.2238 35.6821C54.2238 37.8684 52.5108 41.1293 45.9368 41.1293C39.4018 41.1293 38.1268 37.9486 38.1268 36.1198C38.1268 33.6944 40.1597 32.7008 40.1987 32.6608C40.2387 32.6203 40.2787 32.5806 40.2787 32.5013C40.2787 32.2628 38.8047 31.9052 38.8047 30.1161C38.8047 28.0873 41.0357 26.4186 41.0757 26.3792C41.1157 26.3387 41.1158 26.3002 41.1158 26.2597C41.1158 25.861 39.8008 25.7415 38.6848 23.715C38.1668 22.8404 37.9277 21.8468 37.9277 20.8124C37.9267 17.4747 40.6768 14.613 44.3818 14.613ZM46.8528 39.2603C50.9558 39.2603 51.9117 37.5117 51.9117 36.3575C51.9117 34.9265 50.7558 34.2114 50.3168 34.0128C48.5248 33.0977 46.0557 33.4558 41.9097 33.0195H41.7917C41.5117 33.0195 41.3918 33.1793 41.1138 33.4567C40.6358 33.9329 40.3568 34.6483 40.3568 35.3248C40.3578 37.7106 43.1868 39.2603 46.8528 39.2603ZM41.0358 20.337C41.0358 23.3183 42.6677 25.9826 45.1387 25.9826C47.2907 25.9826 48.6857 24.0354 48.6857 21.5697C48.6857 18.7868 47.0518 15.9644 44.5018 15.9644C42.5088 15.9644 41.0358 17.7142 41.0358 20.337Z" fill="#CCCCCF"/>
<path d="M60.4778 14.5737C61.9918 14.5737 65.8557 15.0505 66.2557 18.9464C66.2957 19.4237 66.3337 19.9003 66.3337 20.3777V28.2095C66.3337 29.7604 67.2898 29.9581 67.6898 29.9581C68.9238 29.9581 68.8438 28.6467 69.4427 28.6467C69.6018 28.6467 69.8008 28.8071 69.8008 29.1637C69.8008 30.0791 68.8037 32.3048 66.7327 32.3048C64.9397 32.3048 63.9828 30.7146 63.9048 30.6746C63.8648 30.6746 63.8647 30.6344 63.8257 30.6344C63.6267 30.6344 63.7458 30.8327 62.7498 31.509C61.8328 32.1056 60.5187 32.6221 59.0447 32.6221C56.2957 32.6221 54.5018 30.5936 54.5018 28.1702V28.1296C54.5018 26.6202 55.2198 25.3472 56.1758 24.5922C58.3278 22.8818 63.1088 22.7229 63.1888 22.6824C63.4678 22.6039 63.5068 22.405 63.5068 22.1254V20.6947C63.5068 19.4223 63.3468 18.4279 62.5508 17.5136C62.0728 16.9974 61.2748 16.4399 60.2408 16.4399C57.9688 16.4399 56.8938 18.9449 56.8138 19.1044C56.6938 19.2634 56.4548 19.5416 55.9368 19.5416C55.1798 19.5416 54.3438 19.0254 54.3438 18.1106C54.3418 16.6807 57.1708 14.5737 60.4778 14.5737ZM63.3068 28.805C63.5048 28.5268 63.5447 28.2483 63.5447 27.8908V26.9369V25.3064C63.5447 24.3528 63.5047 24.1533 63.1467 24.1533C62.4287 24.1533 59.7197 24.3519 58.4037 25.5846C57.8867 26.0218 57.4487 26.7371 57.4487 27.7319C57.4487 28.3679 57.6468 29.3609 58.2858 29.9173C58.7638 30.3545 59.4797 30.4349 59.9977 30.4349C61.9517 30.4361 63.1068 29.0833 63.3068 28.805Z" fill="#CCCCCF"/>
<path d="M74.382 16.9983H74.422C74.583 16.9983 76.456 14.6528 79.88 14.6131H79.959C81.75 14.6131 85.22 15.4078 85.62 20.3372C85.7 21.0137 85.7 21.6891 85.7 22.3657C85.7 23.042 85.66 23.757 85.66 29.2437V29.3224C85.66 30.4361 86.17 30.3568 87.57 30.5545C88.09 30.6336 88.13 30.9917 88.13 31.2696C88.13 31.9462 87.77 32.066 87.53 32.066C87.17 32.066 86.18 31.8263 84.18 31.8263C82.43 31.8263 81 32.066 80.92 32.066C80.44 32.066 80.36 31.6674 80.36 31.2696C80.36 30.5545 80.84 30.6336 82.43 30.3556C82.95 30.276 83.07 30.0771 83.07 29.4014V23.2394C83.07 22.5252 83.03 20.138 82.55 18.9461C81.67 16.9184 79.482 16.5606 78.567 16.5606C76.254 16.5606 74.622 18.4288 74.461 19.1447C74.422 19.3039 74.422 19.5025 74.422 19.6615V29.083V29.202C74.422 29.6391 74.461 30.1961 75.299 30.3151C76.972 30.593 77.451 30.5143 77.451 31.3889C77.451 31.7864 77.291 32.1039 76.932 32.1039C76.813 32.1039 75.179 31.8249 73.226 31.8249C71.314 31.8249 69.839 32.064 69.721 32.064C69.481 32.064 69.083 31.9048 69.083 31.3489C69.083 30.5528 69.401 30.5922 70.636 30.3953C71.633 30.2358 71.673 29.7187 71.673 29.0425V19.5419C71.673 18.588 71.673 18.6676 69.881 17.3156C69.761 17.1961 69.641 17.0774 69.641 16.9181V16.8788C69.641 16.5603 69.721 16.6 73.427 14.6128C73.546 14.5327 73.665 14.4536 73.826 14.4536C74.185 14.4536 74.303 14.7321 74.303 15.0497V16.5997C74.303 16.6799 74.263 16.7992 74.263 16.8388C74.262 16.9587 74.341 16.9983 74.382 16.9983Z" fill="#CCCCCF"/>
<path d="M87.9297 16.7999C87.9297 16.1239 89.9197 15.408 92.0697 11.7516C92.1897 11.5518 92.4297 11.0356 92.8697 11.0356C93.0997 11.0356 93.3897 11.1546 93.3897 11.6714C93.3897 12.2281 93.3397 13.8977 93.3397 14.4544C93.3397 15.1304 93.6597 15.2493 94.1397 15.2493H97.7297C97.8497 15.2493 97.9297 15.289 98.0497 15.289C98.4097 15.289 99.0797 15.289 99.0797 16.0452C99.0797 16.2826 98.9197 16.9594 98.7197 17.1968C98.5597 17.356 98.3697 17.3963 98.0097 17.3963H93.3497C93.0697 17.3963 92.9497 17.4753 92.9497 17.7544C92.9097 25.1888 92.9097 26.1025 92.9097 27.0575C92.9097 28.448 93.2697 29.9977 94.9397 29.9977C96.8497 29.9977 98.4097 27.6131 99.2797 27.6131C99.7197 27.6131 99.9997 27.9712 99.9997 28.3287C99.9997 28.646 99.7997 28.8846 99.7197 29.0047C98.3197 30.5938 96.3697 32.5815 94.1797 32.5815C92.5897 32.5815 90.4397 31.4695 90.1597 27.7332C90.1197 27.2955 90.1197 26.898 90.1197 26.4606C90.1197 24.7108 90.2797 18.5494 90.2797 17.6745C90.2797 17.4756 90.2397 17.3164 89.9997 17.3164H88.7197C88.3697 17.3161 87.9297 17.2764 87.9297 16.7999Z" fill="#CCCCCF"/>
<path d="M59.8232 42.8994L59.9462 43.8436C59.7092 43.9082 59.4982 43.9396 59.3112 43.9396C59.0062 43.9396 58.7713 43.8778 58.6033 43.7548C58.4363 43.6323 58.3193 43.4702 58.2493 43.2696C58.1813 43.0707 58.1472 42.6491 58.1472 42.0062V38.3753H57.5312V37.5427H58.1472V35.9798L58.9802 35.3389V37.5439H59.8253V38.3762H58.9802V42.0682C58.9802 42.3735 58.9953 42.5689 59.0253 42.656C59.0553 42.7431 59.1033 42.8132 59.1693 42.8655C59.2363 42.9167 59.3312 42.9434 59.4562 42.9434C59.5482 42.9417 59.6712 42.927 59.8232 42.8994Z" fill="#CCCCCF"/>
<path d="M62.2661 43.8562V35.1426H63.1051V38.2693C63.4951 37.6893 63.9901 37.401 64.5861 37.401C64.9541 37.401 65.2721 37.493 65.5421 37.6772C65.8121 37.8629 66.0051 38.1167 66.1221 38.4417C66.2401 38.7662 66.2971 39.2381 66.2971 39.8564V43.8571H65.4591V39.8564C65.4591 39.3221 65.3671 38.9318 65.1861 38.6889C65.0041 38.4435 64.7481 38.3236 64.4151 38.3236C64.1671 38.3236 63.9331 38.4055 63.7131 38.5694C63.4931 38.7343 63.3371 38.9579 63.2441 39.2384C63.1501 39.5198 63.1051 39.9081 63.1051 40.4039V43.8582L62.2661 43.8562Z" fill="#CCCCCF"/>
<path d="M72.585 41.8234L73.453 41.9608C73.315 42.6054 73.063 43.1078 72.692 43.4642C72.322 43.8206 71.851 43.9985 71.276 43.9985C70.551 43.9985 69.977 43.7143 69.554 43.1452C69.129 42.577 68.917 41.7794 68.917 40.7528C68.917 39.6914 69.131 38.8668 69.56 38.2799C69.988 37.6939 70.545 37.3999 71.228 37.3999C71.89 37.3999 72.431 37.6879 72.851 38.2621C73.27 38.8375 73.479 39.6451 73.479 40.6873C73.479 40.7517 73.479 40.8471 73.475 40.973H69.784C69.815 41.6662 69.97 42.1973 70.246 42.5655C70.523 42.9331 70.867 43.119 71.28 43.119C71.588 43.119 71.851 43.0161 72.068 42.8098C72.285 42.6037 72.458 42.2749 72.585 41.8234ZM69.831 40.0929H72.596C72.557 39.5624 72.453 39.1646 72.278 38.8979C72.01 38.4863 71.665 38.2805 71.239 38.2805C70.853 38.2805 70.529 38.4455 70.268 38.7749C70.004 39.1025 69.858 39.5422 69.831 40.0929Z" fill="#CCCCCF"/>
<path d="M76.1279 43.8564V37.5429H76.8779V38.4287C77.0319 38.1195 77.2409 37.8717 77.4979 37.6832C77.7559 37.4947 78.048 37.4004 78.379 37.4004C78.745 37.4004 79.045 37.4975 79.28 37.693C79.514 37.8867 79.6809 38.158 79.7769 38.5069C80.1699 37.7706 80.6799 37.4004 81.3099 37.4004C81.7999 37.4004 82.1799 37.574 82.4399 37.9212C82.6999 38.2669 82.84 38.8012 82.84 39.5229V43.8559H81.9999V39.8793C81.9999 39.451 81.9799 39.1429 81.9199 38.9541C81.8699 38.7662 81.7699 38.6135 81.6299 38.5C81.4799 38.3859 81.3199 38.3267 81.1199 38.3267C80.7699 38.3267 80.4899 38.4753 80.2599 38.7702C80.0299 39.0642 79.9099 39.5376 79.9099 40.1874V43.8564H79.072V39.7548C79.072 39.28 79.0049 38.9225 78.8669 38.6854C78.7289 38.4468 78.5069 38.3279 78.1959 38.3279C77.9599 38.3279 77.7419 38.406 77.5419 38.5653C77.3399 38.7236 77.1949 38.9561 77.1049 39.2614C77.0139 39.5666 76.968 40.0063 76.968 40.5806V43.8559H76.1309L76.1279 43.8564Z" fill="#CCCCCF"/>
<path d="M89.09 41.8234L89.96 41.9608C89.82 42.6054 89.57 43.1078 89.2 43.4642C88.82 43.8206 88.35 43.9985 87.78 43.9985C87.05 43.9985 86.4799 43.7143 86.0599 43.1452C85.6299 42.577 85.4199 41.7794 85.4199 40.7528C85.4199 39.6914 85.6299 38.8668 86.0599 38.2799C86.4899 37.6939 87.0499 37.3999 87.7299 37.3999C88.3899 37.3999 88.9299 37.6879 89.3499 38.2621C89.7699 38.8375 89.9799 39.6451 89.9799 40.6873C89.9799 40.7517 89.9799 40.8471 89.9799 40.973H86.2899C86.3199 41.6662 86.4699 42.1973 86.7499 42.5655C87.0299 42.9331 87.37 43.119 87.78 43.119C88.09 43.119 88.3499 43.0161 88.5699 42.8098C88.7899 42.6037 88.96 42.2749 89.09 41.8234ZM86.33 40.0929H89.0999C89.0599 39.5624 88.96 39.1646 88.78 38.8979C88.51 38.4863 88.1699 38.2805 87.7399 38.2805C87.3599 38.2805 87.03 38.4455 86.77 38.7749C86.51 39.1025 86.36 39.5422 86.33 40.0929Z" fill="#CCCCCF"/>
<path d="M92.2998 41.9722L93.1298 41.8067C93.1698 42.2306 93.2998 42.5551 93.5098 42.7813C93.7298 43.0069 94.0198 43.1204 94.4098 43.1204C94.7898 43.1204 95.0798 43.0193 95.2698 42.8201C95.4498 42.6206 95.5498 42.3838 95.5498 42.1151C95.5498 41.8742 95.4598 41.6828 95.2998 41.5457C95.1798 41.4503 94.8998 41.329 94.4398 41.1824C93.8298 40.9844 93.3998 40.8131 93.1598 40.6688C92.9198 40.5245 92.7398 40.3242 92.6198 40.0679C92.4998 39.8109 92.4398 39.5304 92.4398 39.2206C92.4398 38.9392 92.4898 38.6785 92.5898 38.4388C92.6898 38.2006 92.8298 38.0002 92.9998 37.8425C93.1298 37.7192 93.3098 37.6157 93.5298 37.5297C93.7598 37.4447 93.9998 37.4019 94.2598 37.4019C94.6498 37.4019 94.9898 37.4737 95.2798 37.6163C95.5798 37.7594 95.7898 37.952 95.9298 38.1971C96.0698 38.4403 96.1698 38.7659 96.2198 39.1734L95.3998 39.316C95.3598 38.9915 95.2598 38.7369 95.0798 38.5555C94.8998 38.373 94.6498 38.2816 94.3198 38.2816C93.9298 38.2816 93.6598 38.3635 93.4898 38.5262C93.3298 38.6886 93.2498 38.8794 93.2498 39.0967C93.2498 39.2347 93.2798 39.36 93.3498 39.4715C93.4198 39.5856 93.5298 39.681 93.6698 39.7563C93.7598 39.796 93.9998 39.8871 94.4098 40.0302C95.0098 40.2317 95.4198 40.3967 95.6498 40.5263C95.8898 40.6553 96.0698 40.8433 96.2098 41.0882C96.3398 41.3336 96.4098 41.6388 96.4098 42.0041C96.4098 42.3602 96.3298 42.6959 96.1598 43.0112C95.9998 43.3268 95.7598 43.5699 95.4598 43.7427C95.1498 43.9157 94.7998 44.0005 94.4098 44.0005C93.7698 44.0005 93.2798 43.8303 92.9398 43.4906C92.5998 43.1471 92.3898 42.6413 92.2998 41.9722Z" fill="#CCCCCF"/>
<path d="M89.0001 6.0784L87.9001 2.64301L83.2901 4.64107L83.7601 0H80.1401L80.5901 4.47725L76.3671 2.64301L75.2651 6.0784L79.6451 7.01305L76.3481 10.4993L79.2131 12.6994L82.0001 8.23109L84.7901 12.6994L87.6601 10.4993L84.4001 7.06048L89.0001 6.0784Z" fill="#CCCCCF"/>
</svg>
