<svg width="100" height="26" viewBox="0 0 100 26" fill="none" xmlns="http://www.w3.org/2000/svg">
<path d="M26.4728 0.00390625C25.3638 0.00390625 24.2569 0.00390625 23.1479 0.00390625C22.3157 0.00585625 22.2375 0.085766 22.2375 0.904376C22.2375 4.8591 22.2375 8.81569 22.2375 12.7704C22.2375 16.7991 22.2375 20.8279 22.2375 24.8605C22.2375 25.5291 22.3558 25.6402 23.0336 25.6441C24.1205 25.6499 25.2094 25.6441 26.3004 25.6441C27.3251 25.6441 27.4194 25.5563 27.4194 24.574C27.4194 17.7951 27.4194 11.0162 27.4194 4.2393C27.4194 3.1244 27.4214 2.0115 27.4194 0.896586C27.4173 0.138386 27.273 0.00585625 26.4728 0.00390625Z" fill="#CCCCCF"/>
<path d="M4.69057 0.00561866C3.67786 -0.000221342 2.66514 -0.00412108 1.65042 0.00756892C0.587575 0.0231589 0 0.611788 0 1.6487C0 5.4747 0 9.3027 0 13.1288C0 17.0133 0 20.892 0 24.7765C0 25.4567 0.0942526 25.5483 0.796134 25.5483C1.8269 25.5561 2.85966 25.5561 3.89043 25.5483C4.97333 25.5405 5.51678 25.0162 5.51678 23.9696C5.51678 16.261 5.51678 8.5484 5.51678 0.841778C5.51879 0.165448 5.3724 0.0114687 4.69057 0.00561866Z" fill="#CCCCCF"/>
<path d="M19.5003 24.9655C19.2055 22.112 18.1367 19.5802 16.0812 17.4888C13.8672 15.2396 11.1439 14.0019 8.17401 13.7154C7.21544 13.6979 7.20742 13.6979 7.23349 14.4015C7.24352 14.6607 7.29566 14.916 7.33577 15.1733C7.86719 18.5939 9.5878 21.3188 12.4514 23.3555C14.3285 24.6965 16.4522 25.3923 18.7644 25.6028C19.4522 25.6671 19.5685 25.6204 19.5003 24.9655Z" fill="#CCCCCF"/>
<path d="M18.7802 0.0674596C18.5175 0.10839 18.2448 0.0927992 17.9841 0.131779C14.972 0.597609 12.4152 1.8937 10.3817 4.1137C8.51876 6.1447 7.48399 8.5401 7.23933 11.2454C7.17717 11.951 7.21727 11.9529 7.98132 12.0484C9.03013 11.797 10.121 11.643 11.1237 11.2727C16.1311 9.425 18.8705 5.8387 19.5022 0.69311C19.5824 0.04017 19.4701 -0.0338904 18.7802 0.0674596Z" fill="#CCCCCF"/>
<path d="M45.6483 12.1486C45.5721 9.30878 43.9097 7.40848 41.0981 6.73598C37.9798 5.98368 34.8895 6.42419 31.8153 7.06149C31.4503 7.13559 31.2999 7.39089 31.3079 7.76319C31.324 8.42779 31.3119 9.09828 31.3119 9.76678C31.3119 10.7199 31.4403 10.7667 32.4109 10.7102C34.3902 10.601 36.3735 10.5192 38.3548 10.5192C39.538 10.5192 40.2559 11.1682 40.4524 12.209C40.5146 12.5326 40.4905 12.8756 40.4905 13.2089C40.4945 14.5012 40.4925 14.5128 39.181 14.4973C37.3481 14.4797 35.5212 14.5382 33.7464 15.0605C31.9135 15.5946 30.596 16.649 30.1989 18.5474C29.9443 19.7734 29.9703 21.0111 30.2771 22.2429C30.7023 23.9483 31.7651 25.11 33.5018 25.6129C35.431 26.1645 37.3421 26.0845 39.177 25.2211C39.7024 24.9736 40.2017 24.6695 40.7893 24.3518C40.8134 24.5292 40.8314 24.6188 40.8354 24.7104C40.8796 25.5485 40.9879 25.6538 41.8622 25.6538C42.893 25.6557 43.9237 25.6577 44.9565 25.6538C45.5561 25.6499 45.7687 25.4647 45.7667 24.8976C45.7406 20.6466 45.7626 16.3937 45.6483 12.1486ZM39.9832 21.7225C38.8601 22.1454 37.7251 22.3735 36.5199 22.1708C35.7699 22.046 35.2204 21.6133 35.1562 20.8727C35.1001 20.1964 35.1402 19.4986 35.2765 18.8379C35.4229 18.1323 35.9564 17.6158 36.6843 17.5261C37.8715 17.3838 39.0727 17.3527 40.2679 17.3117C40.3742 17.3078 40.5768 17.5593 40.5868 17.7035C40.6249 18.2765 40.6028 18.8535 40.6028 19.4284C40.6028 19.8767 40.5667 20.325 40.6128 20.7674C40.673 21.282 40.4665 21.5432 39.9832 21.7225Z" fill="#CCCCCF"/>
<path d="M97.4453 5.27148V5.41768H97.8664V6.61248H98.0469V5.41768H98.4681V5.27148H97.4453Z" fill="#CCCCCF"/>
<path d="M99.9138 5.27148H99.6751L99.4285 5.92048C99.3703 6.09008 99.3182 6.23628 99.2841 6.37268H99.2821C99.24 6.23238 99.1978 6.08428 99.1417 5.92048L98.9071 5.27148H98.6805L98.5862 6.61248H98.7547L98.7948 6.03548C98.8068 5.83278 98.8168 5.60868 98.8208 5.44298H98.8248C98.867 5.60088 98.9191 5.77428 98.9833 5.96338L99.2079 6.60468H99.3422L99.5849 5.95168C99.6551 5.76648 99.7092 5.59888 99.7573 5.44298H99.7614C99.7614 5.60668 99.7734 5.83668 99.7874 6.02188L99.8195 6.61248H100L99.9138 5.27148Z" fill="#CCCCCF"/>
<path d="M78.4403 13.4153C78.4283 12.4018 78.3059 11.3766 78.0793 10.3806C77.6281 8.32428 76.4149 6.87608 74.1869 6.49798C71.7544 6.07898 69.4362 6.41418 67.3486 7.79018C67.144 7.92278 66.9395 8.04358 66.5886 8.25998C66.5725 7.86038 66.5484 7.61288 66.5444 7.36148C66.5284 6.70658 66.4121 6.58378 65.7343 6.57988C64.6574 6.57398 63.5905 6.57208 62.5216 6.58178C61.892 6.58568 61.7035 6.77668 61.7035 7.38678C61.7014 13.1814 61.7014 18.9741 61.7035 24.7687C61.7035 25.4489 61.892 25.636 62.5778 25.6399C63.763 25.6438 64.9482 25.6282 66.1333 25.6497C66.6627 25.6555 66.9014 25.4528 66.8914 24.9246C66.8713 23.7747 66.8853 22.6247 66.8853 21.4708C66.8853 18.4069 66.8793 15.3429 66.8974 12.279C66.8974 12.0256 66.9656 11.6455 67.14 11.5403C68.4555 10.7528 69.8673 10.2695 71.4375 10.5229C72.3019 10.6612 72.9075 11.1544 73.0699 12.0217C73.1842 12.622 73.2705 13.2321 73.2705 13.8402C73.2945 17.483 73.2825 21.122 73.2825 24.7628C73.2825 25.5561 73.3767 25.6438 74.213 25.6438C75.2838 25.6497 76.3567 25.6497 77.4256 25.6438C78.3501 25.6438 78.4564 25.5444 78.4564 24.6654C78.4564 20.9193 78.4824 17.1692 78.4403 13.4153Z" fill="#CCCCCF"/>
<path d="M96.6912 13.1989C96.6892 12.6278 96.6611 12.0489 96.5709 11.4759C96.2139 9.2539 94.9886 7.6674 92.7687 6.9482C91.8382 6.6461 90.8454 6.4375 89.8688 6.3771C87.5346 6.2348 85.2284 6.5057 82.9443 7.0066C82.4429 7.1197 82.2323 7.3848 82.2344 7.8603C82.2364 8.4724 82.2344 9.0863 82.2344 9.6983C82.2344 10.6846 82.3747 10.7606 83.3614 10.7099C85.3266 10.6027 87.2899 10.5169 89.2532 10.5052C90.5206 10.5013 91.2305 11.1348 91.4451 12.353C91.5414 12.8987 91.4893 13.4659 91.5193 14.0175C91.5394 14.3839 91.3609 14.5048 90.9999 14.4931C90.1777 14.4814 89.3455 14.4132 88.5353 14.5087C87.1416 14.6685 85.7277 14.8244 84.3801 15.1908C82.5933 15.6801 81.4343 16.8943 81.1415 18.7226C81.0232 19.4808 81.0432 20.2682 81.0813 21.04C81.2337 24.1741 83.6944 26.2324 86.913 25.979C88.5394 25.8562 90.0715 25.48 91.403 24.5152C91.4933 24.4529 91.6075 24.4178 91.7318 24.3632C91.79 24.449 91.8262 24.4704 91.8302 24.5055C91.8502 24.599 91.8601 24.6907 91.8642 24.7862C91.9083 25.595 91.9625 25.6438 92.8168 25.6438C93.8115 25.6496 94.802 25.6496 95.7968 25.6438C96.5969 25.6438 96.6951 25.556 96.6951 24.7901C96.6971 20.927 96.7012 17.062 96.6912 13.1989ZM91.6397 20.9445C91.6537 21.2993 91.4972 21.4864 91.1783 21.6248C90.0052 22.1296 88.8 22.3888 87.5105 22.1841C86.582 22.0302 86.0386 21.4181 86.0547 20.2838C86.0848 18.3561 86.5219 17.4849 88.9344 17.3075C89.6543 17.253 90.3863 17.3095 91.1102 17.2939C91.5173 17.2764 91.6477 17.4615 91.6397 17.8279C91.6216 18.3659 91.6316 18.9077 91.6316 19.4418C91.6357 19.9407 91.6156 20.4397 91.6397 20.9445Z" fill="#CCCCCF"/>
<path d="M59.5436 7.04366C59.5456 6.54666 59.317 6.33426 58.8097 6.35376C57.3177 6.41606 55.9701 6.87217 54.7628 7.72007C54.5984 7.83697 54.434 7.94416 54.1873 8.11566C54.1672 7.84866 54.1452 7.69077 54.1452 7.53097C54.1291 6.73187 53.9847 6.58377 53.1806 6.58377C52.1438 6.57987 51.1171 6.58177 50.0843 6.58177C49.1398 6.58377 48.9833 6.73187 48.9833 7.64597C48.9833 10.2071 48.9833 12.7721 48.9833 15.3332C48.9833 18.44 48.9813 21.541 48.9833 24.6381C48.9833 25.4606 49.1698 25.6438 49.974 25.6438C51.0609 25.6497 52.1538 25.6497 53.2428 25.6438C54.1211 25.6438 54.2615 25.5152 54.2615 24.6342C54.2635 20.5158 54.2675 16.3915 54.2535 12.2634C54.2535 11.856 54.3758 11.6241 54.7608 11.4467C56.0362 10.8639 57.3437 10.4273 58.7776 10.4839C59.303 10.5053 59.5577 10.3123 59.5457 9.77237C59.5236 8.86027 59.5276 7.95396 59.5436 7.04366Z" fill="#CCCCCF"/>
</svg>
