<svg width="100" height="48" viewBox="0 0 100 48" fill="none" xmlns="http://www.w3.org/2000/svg">
<path d="M28.6066 47.1619H23.7648C23.625 47.1619 23.5115 47.0486 23.5115 46.9086V26.224C23.5115 26.0842 23.625 25.9707 23.7648 25.9707H28.6066C28.7464 25.9707 28.8599 26.0842 28.8599 26.224V46.9088C28.8599 47.0486 28.7464 47.1619 28.6066 47.1619Z" fill="#CCCCCF"/>
<path d="M71.9791 31.625C71.9791 31.8121 71.7838 31.9355 71.6158 31.8529C70.9506 31.5256 69.4672 30.9096 67.4795 30.9096C64.0236 30.9096 61.625 33.3176 61.625 36.5635C61.625 39.7127 63.9193 42.2197 67.4795 42.2197C69.4459 42.2197 70.9445 41.6094 71.617 41.2832C71.7846 41.2019 71.9791 41.3254 71.9791 41.5117V46.5922C71.9791 46.7053 71.9045 46.8045 71.7957 46.8355C71.0111 47.0592 69.292 47.5385 67.107 47.5385C61.0908 47.5385 55.8115 43.3916 55.8115 36.5635C55.8115 30.234 60.5887 25.5938 67.107 25.5938C69.3771 25.5938 71.116 26.0939 71.8 26.2998C71.907 26.332 71.9791 26.4303 71.9791 26.542V31.625Z" fill="#CCCCCF"/>
<path d="M16.1605 31.6236C16.1605 31.8109 15.965 31.9344 15.7969 31.8514C15.133 31.5236 13.6531 30.9094 11.6682 30.9094C8.2043 30.9094 5.80723 33.3174 5.80723 36.5633C5.80723 39.7125 8.10469 42.2195 11.6682 42.2195C13.6309 42.2195 15.1271 41.6111 15.7982 41.2846C15.966 41.2029 16.1605 41.3266 16.1605 41.5131V46.5926C16.1605 46.7055 16.0861 46.8047 15.9777 46.8357C15.199 47.0596 13.4805 47.5383 11.2844 47.5383C5.27305 47.5383 0 43.3914 0 36.5635C0 30.234 4.77656 25.5938 11.2844 25.5938C13.5615 25.5938 15.3 26.0936 15.9818 26.2996C16.0887 26.332 16.1607 26.4301 16.1607 26.5418V31.6236H16.1605Z" fill="#CCCCCF"/>
<path d="M100 36.5635C100 42.6256 95.3198 47.5385 88.8028 47.5385C82.2853 47.5385 77.6108 42.6256 77.6108 36.5635C77.6108 30.5102 82.2853 25.5938 88.8028 25.5938C95.3196 25.5936 100 30.51 100 36.5635ZM88.8028 30.9897C85.6304 30.9897 83.2741 33.4857 83.2741 36.5635C83.2741 39.6477 85.6304 42.1416 88.8028 42.1416C91.9716 42.1416 94.3345 39.6477 94.3345 36.5635C94.3343 33.4857 91.9716 30.9897 88.8028 30.9897Z" fill="#CCCCCF"/>
<path d="M49.1407 30.4575C49.1407 30.6228 48.9862 30.7437 48.8261 30.7032C48.1315 30.5276 46.4198 30.1399 44.9595 30.1399C42.8161 30.1399 41.6524 30.8577 41.6524 31.8774C41.6524 33.1681 43.2233 33.6163 44.1042 33.8948L45.5786 34.3649C49.0501 35.4685 50.6308 37.8456 50.6308 40.4271C50.6308 45.7501 45.9501 47.5386 41.8575 47.5386C39.3661 47.5386 37.0142 47.1376 36.2909 47.0005C36.1716 46.9778 36.0855 46.8733 36.0855 46.7519V42.4124C36.0855 42.2462 36.2425 42.1247 36.403 42.1675C37.2185 42.3851 39.1427 42.8722 41.1358 42.8722C43.7958 42.8722 45.0196 42.0923 45.0196 40.8927C45.0196 39.8185 43.961 39.1981 42.6353 38.7814C42.3105 38.6735 41.8243 38.5212 41.4929 38.4134C38.5138 37.471 36.0317 35.7212 36.0317 32.2136C36.0317 28.2497 38.9981 25.5874 43.928 25.5874C46.1716 25.5874 48.3007 26.0565 48.9489 26.2144C49.0624 26.2419 49.1409 26.3433 49.1409 26.4601L49.1407 30.4575Z" fill="#CCCCCF"/>
<path d="M28.1733 46.9088V26.224C28.1733 26.0842 28.2868 25.9707 28.4266 25.9707H23.7651C23.6252 25.9707 23.512 26.0842 23.512 26.224V46.9088C23.512 47.0486 23.6254 47.1621 23.7651 47.1621H28.4266C28.2866 47.1619 28.1733 47.0486 28.1733 46.9088Z" fill="#CCCCCF"/>
<path d="M71.6162 31.8529C71.7842 31.9355 71.9795 31.8121 71.9795 31.625V30.9131C71.2732 30.9287 70.6123 31.0447 70.0098 31.2494C70.7285 31.4463 71.2783 31.6867 71.6162 31.8529Z" fill="#CCCCCF"/>
<path d="M60.473 36.5637C60.473 30.9793 64.1928 26.7121 69.5447 25.7842C68.8393 25.6746 68.0168 25.5938 67.107 25.5938C60.5887 25.5938 55.8115 30.234 55.8115 36.5635C55.8115 43.3916 61.091 47.5385 67.107 47.5385C68.0102 47.5385 68.8318 47.456 69.5426 47.3443C64.508 46.4525 60.473 42.5328 60.473 36.5637Z" fill="#CCCCCF"/>
<path d="M71.9791 41.5118C71.9791 41.3255 71.7848 41.2019 71.617 41.2833C71.2762 41.4486 70.7225 41.6868 70.0039 41.8816C70.6037 42.0851 71.2654 42.2007 71.9791 42.2163V41.5118Z" fill="#CCCCCF"/>
<path d="M4.66152 36.5637C4.66152 30.9789 8.38125 26.7115 13.7266 25.784C13.0205 25.6746 12.1967 25.5938 11.2842 25.5938C4.77656 25.5938 0 30.234 0 36.5637C0 43.3918 5.27305 47.5387 11.2844 47.5387C12.1906 47.5387 13.0139 47.4566 13.725 47.3451C8.69336 46.4543 4.66152 42.5342 4.66152 36.5637Z" fill="#CCCCCF"/>
<path d="M82.2721 36.5637C82.2721 31.26 85.8607 26.8293 91.1334 25.8133C90.3881 25.6697 89.6096 25.5938 88.8025 25.5938C82.285 25.5938 77.6104 30.5102 77.6104 36.5635C77.6104 42.6256 82.2848 47.5385 88.8025 47.5385C89.6096 47.5385 90.3881 47.4627 91.1334 47.3191C85.8607 46.3037 82.2721 41.875 82.2721 36.5637Z" fill="#CCCCCF"/>
<path d="M48.826 30.7033C48.9861 30.7438 49.1406 30.6229 49.1406 30.4576V30.1543C48.534 30.1875 48.0191 30.2838 47.6025 30.4326C48.1166 30.5313 48.5514 30.6338 48.826 30.7033Z" fill="#CCCCCF"/>
<path d="M4.35371 11.348C4.35371 10.1495 3.37676 9.17822 2.17715 9.17822C0.979102 9.17803 0 10.1495 0 11.348V15.9083C0 17.113 0.979102 18.0843 2.17715 18.0843C3.37656 18.0843 4.35371 17.113 4.35371 15.9083V11.348Z" fill="#CCCCCF"/>
<path d="M16.3112 5.36016C16.3112 4.1627 15.3337 3.18945 14.1347 3.18945C12.9353 3.18945 11.9575 4.1627 11.9575 5.36016V15.9078C11.9575 17.1125 12.9354 18.0838 14.1347 18.0838C15.3337 18.0838 16.3112 17.1125 16.3112 15.9078V5.36016Z" fill="#CCCCCF"/>
<path d="M28 1.58207C28 0.708759 27.1013 0 25.9999 0C24.8987 0 24 0.708759 24 1.58207V18.4128C24 19.2908 24.8987 20 25.9999 20C27.1013 20 28 19.291 28 18.4128V1.58207Z" fill="#CCCCCF"/>
<path d="M2.44824 11.908V7.34766C2.44824 6.60234 2.82715 5.94551 3.40156 5.55469C3.05234 5.31719 2.63086 5.17773 2.17734 5.17773C0.979101 5.17773 0 6.14922 0 7.34766V11.908C0 13.1127 0.979101 14.084 2.17734 14.084C2.63105 14.084 3.05254 13.9447 3.40156 13.7068C2.82715 13.3156 2.44824 12.657 2.44824 11.908Z" fill="#CCCCCF"/>
<path d="M14.4058 15.9083V5.36065C14.4058 4.61592 14.7843 3.9583 15.3587 3.56729C15.0095 3.32959 14.5882 3.18994 14.1349 3.18994C12.9355 3.18994 11.9575 4.16319 11.9575 5.36065V15.9083C11.9575 17.113 12.9355 18.0843 14.1349 18.0843C14.5882 18.0843 15.0097 17.945 15.3587 17.7071C14.7843 17.3159 14.4058 16.6573 14.4058 15.9083Z" fill="#CCCCCF"/>
<path d="M26.1592 18.4128V1.58207C26.1592 1.03899 26.4932 0.559743 27 0.274814C26.6918 0.101577 26.3201 0 25.9203 0C24.863 0 24 0.708759 24 1.58207V18.4128C24 19.2908 24.8628 20 25.9203 20C26.3201 20 26.6918 19.8984 27 19.7249C26.4932 19.4394 26.1592 18.9589 26.1592 18.4128Z" fill="#CCCCCF"/>
<path d="M52.177 11.348C52.177 10.1495 51.2 9.17822 50.0004 9.17822C48.8023 9.17822 47.8232 10.1495 47.8232 11.348V15.9083C47.8232 17.113 48.8023 18.0843 50.0004 18.0843C51.1998 18.0843 52.177 17.113 52.177 15.9083V11.348Z" fill="#CCCCCF"/>
<path d="M50.2715 15.908V11.3477C50.2715 10.6023 50.6504 9.94551 51.2248 9.55469C50.8756 9.31719 50.4541 9.17773 50.0006 9.17773C48.8025 9.17773 47.8232 10.149 47.8232 11.3475V15.9078C47.8232 17.1125 48.8023 18.0838 50.0006 18.0838C50.4543 18.0838 50.8758 17.9445 51.2248 17.7066C50.6504 17.3156 50.2715 16.657 50.2715 15.908Z" fill="#CCCCCF"/>
<path d="M40.2233 5.36016C40.2233 4.1627 39.2458 3.18945 38.0468 3.18945C36.8474 3.18945 35.8696 4.1627 35.8696 5.36016V15.9078C35.8696 17.1125 36.8476 18.0838 38.0468 18.0838C39.2458 18.0838 40.2233 17.1125 40.2233 15.9078V5.36016Z" fill="#CCCCCF"/>
<path d="M38.3176 15.9083V5.36065C38.3176 4.61592 38.6961 3.9583 39.2706 3.56729C38.9213 3.32959 38.5 3.18994 38.0467 3.18994C36.8473 3.18994 35.8694 4.16319 35.8694 5.36065V15.9083C35.8694 17.113 36.8473 18.0843 38.0467 18.0843C38.5 18.0843 38.9215 17.945 39.2706 17.7071C38.6961 17.3159 38.3176 16.6573 38.3176 15.9083Z" fill="#CCCCCF"/>
<path d="M64.1311 5.36016C64.1311 4.1627 63.1535 3.18945 61.9545 3.18945C60.7551 3.18945 59.7773 4.1627 59.7773 5.36016V15.9078C59.7773 17.1125 60.7553 18.0838 61.9545 18.0838C63.1535 18.0838 64.1311 17.1125 64.1311 15.9078V5.36016Z" fill="#CCCCCF"/>
<path d="M76 1.66117C76 0.744197 75.1013 0 73.9999 0C72.8987 0 72 0.744197 72 1.66117V19.3334C72 20.2554 72.8987 21 73.9999 21C75.1013 21 76 20.2555 76 19.3334V1.66117Z" fill="#CCCCCF"/>
<path d="M62.2256 15.9083V5.36065C62.2256 4.61592 62.6041 3.9583 63.1785 3.56729C62.8293 3.32959 62.408 3.18994 61.9547 3.18994C60.7553 3.18994 59.7773 4.16319 59.7773 5.36065V15.9083C59.7773 17.113 60.7553 18.0843 61.9547 18.0843C62.408 18.0843 62.8295 17.945 63.1785 17.7071C62.6041 17.3159 62.2256 16.6573 62.2256 15.9083Z" fill="#CCCCCF"/>
<path d="M74.1592 19.3334V1.66117C74.1592 1.09094 74.4932 0.58773 75 0.288555C74.6918 0.106656 74.3201 0 73.9203 0C72.863 0 72 0.744197 72 1.66117V19.3334C72 20.2554 72.8628 21 73.9203 21C74.3201 21 74.6918 20.8933 75 20.7111C74.4932 20.4114 74.1592 19.9068 74.1592 19.3334Z" fill="#CCCCCF"/>
<path d="M99.9968 11.348C99.9968 10.1495 99.0198 9.17822 97.8202 9.17822C96.6222 9.17822 95.6431 10.1495 95.6431 11.348V15.9083C95.6431 17.113 96.6222 18.0843 97.8202 18.0843C99.0196 18.0843 99.9968 17.113 99.9968 15.9083V11.348Z" fill="#CCCCCF"/>
<path d="M98.0913 15.908V11.3477C98.0913 10.6023 98.4702 9.94551 99.0446 9.55469C98.6954 9.31719 98.2739 9.17773 97.8204 9.17773C96.6224 9.17773 95.6431 10.149 95.6431 11.3475V15.9078C95.6431 17.1125 96.6222 18.0838 97.8204 18.0838C98.2741 18.0838 98.6956 17.9445 99.0446 17.7066C98.4702 17.3156 98.0913 16.657 98.0913 15.908Z" fill="#CCCCCF"/>
<path d="M88.0427 5.36016C88.0427 4.1627 87.0651 3.18945 85.8661 3.18945C84.6667 3.18945 83.689 4.1627 83.689 5.36016V15.9078C83.689 17.1125 84.6669 18.0838 85.8661 18.0838C87.0651 18.0838 88.0427 17.1125 88.0427 15.9078V5.36016Z" fill="#CCCCCF"/>
<path d="M86.1372 15.9083V5.36065C86.1372 4.61592 86.5157 3.9583 87.0901 3.56729C86.7409 3.32959 86.3196 3.18994 85.8663 3.18994C84.6669 3.18994 83.689 4.16319 83.689 5.36065V15.9083C83.689 17.113 84.6669 18.0843 85.8663 18.0843C86.3196 18.0843 86.7411 17.945 87.0901 17.7071C86.5157 17.3159 86.1372 16.6573 86.1372 15.9083Z" fill="#CCCCCF"/>
<path d="M43.567 39.1357C37.8186 33.6986 41.7381 28.5928 41.7381 28.5928L41.7383 28.593C42.7133 27.1506 44.3402 26.1512 46.4955 25.7652C45.7174 25.6637 44.8328 25.5869 43.9275 25.5869C38.9977 25.5869 36.0312 28.2492 36.0312 32.2131C36.0312 35.7207 38.5133 37.4707 41.4924 38.4129C41.8238 38.5207 42.31 38.673 42.6348 38.7809C42.9664 38.8854 43.2813 39.0023 43.567 39.1357Z" fill="#CCCCCF"/>
<path d="M40.747 42.8658C38.8964 42.8093 37.1651 42.3707 36.403 42.1673C36.2425 42.1246 36.0854 42.246 36.0854 42.4123V46.7517C36.0854 46.8732 36.1716 46.9779 36.2909 47.0003C36.9144 47.1185 38.7489 47.4322 40.839 47.5168C40.27 45.3058 40.747 42.8658 40.747 42.8658Z" fill="#CCCCCF"/>
</svg>
