<svg width="100" height="34" viewBox="0 0 100 34" fill="none" xmlns="http://www.w3.org/2000/svg">
<path d="M99.9629 18.4981C99.8299 17.7533 99.1859 17.3065 98.2549 17.2965C97.9679 17.2926 97.6829 17.3204 97.4029 17.2906C96.8529 17.235 96.7089 17.4137 96.7129 17.8387C96.7389 19.924 96.7309 22.0073 96.7229 24.0867C96.7169 25.177 95.6249 26.2971 94.3119 26.5811C90.2369 27.4529 86.1669 28.3387 82.0869 29.2026C81.6289 29.2999 81.1459 29.3496 80.6789 29.3456C80.4759 29.3456 80.1949 29.1947 80.1069 29.0477C80.0499 28.9504 80.2289 28.7141 80.3699 28.5929C80.5549 28.4459 80.7919 28.3288 81.0339 28.2473C81.7819 27.9872 82.5419 27.7508 83.2979 27.5066C86.3229 26.5255 89.3549 25.5563 92.3769 24.5693C93.7399 24.1204 94.4759 23.2347 94.4979 22.1166C94.5669 18.4941 94.5329 14.8716 94.5159 11.2452C94.5159 10.6712 94.2109 10.1926 93.5099 9.94439C92.7029 9.66229 91.9939 9.88679 91.2929 10.2125C87.0099 12.2044 82.7289 14.1924 78.4419 16.1804C77.1809 16.7663 76.4779 17.6143 76.4839 18.8218C76.4979 22.2476 76.4879 25.6675 76.4919 29.0894C76.4919 29.2602 76.5109 29.435 76.5659 29.5978C76.9869 30.7616 78.0819 31.4289 79.5929 31.4289C82.6069 31.4369 85.6309 31.4329 88.6459 31.4329C91.6519 31.4329 94.6469 31.4369 97.6519 31.4289C98.3039 31.4289 98.9049 31.2978 99.3939 30.9046C100.028 30.4081 99.9949 29.7766 99.9949 29.147C100.001 25.8105 100.001 22.478 99.9969 19.1356C100.003 18.927 99.9989 18.7086 99.9629 18.4981ZM87.4319 17.4276C87.7349 16.659 88.3979 16.1784 89.4079 16.0553C90.0769 15.9719 90.6589 16.375 90.7549 16.9629C90.8999 17.8685 89.7379 18.9211 88.5909 18.9171C87.6339 18.9171 87.0999 18.2637 87.4319 17.4276Z" fill="#CCCCCF"/>
<path d="M15.5098 4.18473C15.5098 5.2413 15.5098 6.276 15.5098 7.3206C14.6878 7.3206 13.9238 7.3206 13.1008 7.3206C13.1008 6.2541 13.1008 5.2194 13.1008 4.1748C12.6548 4.1748 12.2678 4.1748 11.8418 4.1748C11.8418 6.7904 11.8418 9.3603 11.8418 11.9361C12.2818 11.9361 12.6788 11.9361 13.1398 11.9361C13.1398 10.7604 13.1398 9.6164 13.1398 8.4606C13.9548 8.4606 14.7088 8.4606 15.5178 8.4606C15.5178 9.6323 15.5178 10.7783 15.5178 11.9401C15.9758 11.9401 16.3728 11.9401 16.7988 11.9401C16.7988 9.3424 16.7988 6.7685 16.7988 4.18473C16.3628 4.18473 15.9658 4.18473 15.5098 4.18473Z" fill="#CCCCCF"/>
<path d="M47.5411 25.5477C47.1621 23.7027 45.7241 22.5826 43.4281 22.3979C42.5231 22.3304 41.6021 22.386 40.6261 22.386C40.6261 20.7595 40.6261 19.115 40.6261 17.4746C39.9331 17.4746 39.3061 17.4746 38.6621 17.4746C38.6621 21.9947 38.6621 26.4831 38.6621 31.1304C40.1151 31.1304 41.5181 31.2118 42.9041 31.1085C44.9801 30.9576 46.5631 30.1532 47.3051 28.5029C47.7371 27.5456 47.7451 26.5487 47.5411 25.5477ZM44.5031 27.6171C44.1391 29.1265 42.5532 29.8375 40.6422 29.3966C40.6422 27.7204 40.6341 26.072 40.6591 24.4197C40.6591 24.3104 40.8541 24.1317 40.9951 24.1059C42.9061 23.7107 44.1831 24.3303 44.5161 25.8853C44.6341 26.4434 44.6381 27.0571 44.5031 27.6171Z" fill="#CCCCCF"/>
<path d="M8.77222 3.91655e-05C8.07722 3.91655e-05 7.38624 0.00202917 6.69324 3.91655e-05C5.71524 -0.00393083 4.90422 0.293969 4.23822 0.867919C1.95022 2.84201 2.55121 6.5916 5.59521 7.3919C4.57221 8.8894 3.55623 10.3829 2.49023 11.9478C2.92423 11.9478 3.25823 11.926 3.58423 11.9538C4.01623 11.9915 4.23823 11.8545 4.43823 11.5427C5.20023 10.3372 6.00926 9.1496 6.79926 7.954C7.16426 7.4058 7.20921 7.39 8.06921 7.5508C8.06921 8.9966 8.06921 10.4544 8.06921 11.9101C8.58821 11.9101 9.03926 11.9101 9.52826 11.9101C9.52826 11.6599 9.52826 11.4493 9.52826 11.2349C9.52826 7.6879 9.52826 4.13887 9.52826 0.589879C9.52826 3.91006e-05 9.52522 0.00202917 8.77222 3.91655e-05ZM8.02826 6.2996C7.03626 6.2897 6.00124 6.53 5.24524 5.8051C4.37924 4.97696 4.13227 4.01971 4.45227 2.96912C4.47927 2.8857 4.52127 2.80626 4.55627 2.72682C5.20027 1.283 6.04926 0.881829 8.02826 1.12213C8.02826 2.84797 8.02826 4.54997 8.02826 6.2996Z" fill="#CCCCCF"/>
<path d="M44.8322 10.8219C42.6702 11.5249 41.1782 10.8894 40.7872 9.0543C40.5812 8.103 40.6552 7.1458 41.0112 6.2183C41.4922 4.95125 42.4482 4.57391 44.0372 4.99295C44.0672 5.0009 44.1042 4.98699 44.1592 4.97905C44.3182 4.78641 44.4812 4.58384 44.6582 4.36736C43.3462 3.52729 41.5472 3.72787 40.5692 4.7884C39.8132 5.6066 39.5182 6.554 39.4222 7.5489C39.3142 8.6909 39.4592 9.7991 40.2332 10.802C41.0442 11.8506 42.4502 12.3431 43.8962 12.0135C44.9172 11.7791 45.0312 11.6759 44.8322 10.8219Z" fill="#CCCCCF"/>
<path d="M10.605 29.5177C10.605 25.4861 10.605 21.5002 10.605 17.4785C8.07298 17.4785 5.61899 17.4785 3.22699 17.4785C3.12599 19.5221 3.07697 21.5319 2.90997 23.5378C2.76097 25.3173 2.35703 27.063 1.55103 28.7431C1.28403 29.2972 0.963987 29.6626 0.148987 29.5296C0.105987 29.5236 0.053 29.5554 0 29.5753C0 31.0528 0 32.5225 0 33.9921C0.744 33.9921 1.445 33.9921 2.203 33.9921C2.203 32.9932 2.203 32.0339 2.203 31.0767C4.878 31.0767 7.50002 31.0767 10.179 31.0767C10.179 32.0657 10.179 33.023 10.179 34.0001C10.925 34.0001 11.61 34.0001 12.319 34.0001C12.319 32.5066 12.319 31.033 12.319 29.5177C11.73 29.5177 11.186 29.5177 10.605 29.5177ZM8.21503 29.5018C6.56103 29.5018 4.92499 29.5018 3.38599 29.5018C3.79799 28.4969 4.30099 27.5078 4.60699 26.4811C5.21999 24.4176 5.21599 22.3005 5.23199 20.1894C5.23599 19.8637 5.23199 19.534 5.23199 19.1765C6.23299 19.1765 7.20298 19.1765 8.21698 19.1765C8.21498 22.5925 8.21503 26.0183 8.21503 29.5018Z" fill="#CCCCCF"/>
<path d="M31.3391 10.9269C30.9661 11.0322 30.6081 11.1593 30.2331 11.2328C29.1871 11.4393 28.4421 11.2129 28.0441 10.5714C27.5781 9.8207 27.6001 9.0144 27.6291 8.1703C28.9691 8.1703 30.2571 8.1703 31.5711 8.1703C31.6571 6.9073 31.4981 5.7236 30.6771 4.64718C29.9561 3.70184 28.7071 3.55091 27.7141 4.32744C27.3411 4.61739 27.0281 4.98877 26.8081 5.3661C26.1921 6.4167 25.9581 7.5487 26.1031 8.6966C26.1941 9.4096 26.3961 10.1345 26.7081 10.8058C27.1601 11.7928 28.2051 12.2973 29.4141 12.1721C29.9981 12.1126 30.5831 11.9517 31.1331 11.765C31.7461 11.5585 31.7631 11.3678 31.3391 10.9269ZM28.2831 5.235C28.7271 4.69683 29.4601 4.71272 29.8541 5.2767C30.2941 5.9023 30.3471 6.5935 30.3281 7.3184C29.3731 7.3184 28.4991 7.3184 27.5821 7.3184C27.6251 6.5597 27.7731 5.8567 28.2831 5.235Z" fill="#CCCCCF"/>
<path d="M34.9638 17.7335C34.8778 17.6322 34.7698 17.4793 34.6618 17.4753C34.0118 17.4495 33.3598 17.4594 32.6408 17.4594C32.6408 19.3441 32.6408 21.203 32.6408 23.0718C31.2268 23.0718 29.8818 23.0718 28.4228 23.0718C28.4228 21.1871 28.4228 19.3401 28.4228 17.4693C27.6348 17.4693 26.9148 17.4693 26.1738 17.4693C26.1738 22.0471 26.1738 26.601 26.1738 31.1767C26.9378 31.1767 27.6688 31.1767 28.4518 31.1767C28.4518 30.9781 28.4518 30.8073 28.4518 30.6405C28.4518 29.0398 28.4498 27.449 28.4518 25.8503C28.4518 24.9705 28.4518 24.9705 29.5318 24.9705C30.5538 24.9705 31.5768 24.9705 32.6568 24.9705C32.6568 27.0776 32.6568 29.1212 32.6568 31.1807C33.4498 31.1807 34.1828 31.1807 34.9428 31.1807C34.9528 31.0298 34.9698 30.9007 34.9698 30.7775C34.9698 26.4838 34.9698 22.1901 34.9698 17.9003C34.9698 17.8427 34.9978 17.7712 34.9638 17.7335Z" fill="#CCCCCF"/>
<path d="M36.2208 7.2194C37.0068 6.3376 37.7588 5.438 38.5228 4.54625C38.6168 4.43702 38.6987 4.32184 38.8287 4.15501C38.5817 4.15501 38.4378 4.1709 38.3008 4.15302C37.7428 4.07954 37.4028 4.2563 37.0988 4.64555C36.4288 5.5035 35.6848 6.3217 34.9678 7.1539C34.8858 7.2472 34.7837 7.3286 34.5887 7.5133C34.5887 6.3198 34.5887 5.2592 34.5887 4.17686C34.1487 4.17686 33.7637 4.17686 33.3438 4.17686C33.3438 6.7309 33.3438 9.2432 33.3438 11.7535C33.7718 11.7535 34.1568 11.7535 34.6068 11.7535C34.6068 10.8538 34.5868 9.972 34.6188 9.0942C34.6318 8.7923 34.7738 8.4905 34.8558 8.1886C35.0978 8.3336 35.2018 8.4627 35.2938 8.5977C35.9438 9.549 36.5858 10.5003 37.2418 11.4456C37.3268 11.5707 37.4737 11.7396 37.6127 11.7574C37.9827 11.8031 38.3638 11.7733 38.8228 11.7733C37.9098 10.4189 37.0577 9.1399 36.1857 7.8669C36.0207 7.6285 36.0088 7.4557 36.2208 7.2194Z" fill="#CCCCCF"/>
<path d="M66.1498 17.4306C65.7828 17.4187 65.6177 17.52 65.4877 17.7921C64.6047 19.6867 63.7008 21.5714 62.8018 23.4601C62.4088 24.2863 62.0008 25.1125 61.6038 25.9387C61.5648 25.9347 61.5347 25.9267 61.4957 25.9228C61.4957 23.1106 61.4957 20.2984 61.4957 17.4644C60.7057 17.4644 59.9717 17.4644 59.2197 17.4644C59.2197 22.0501 59.2197 26.6199 59.2197 31.1916C59.9717 31.1916 60.6808 31.1916 61.4548 31.1916C62.8758 28.2007 64.2958 25.1979 65.7278 22.1692C65.7278 25.184 65.7278 28.1848 65.7278 31.1837C66.6208 31.1837 67.4478 31.1837 68.2988 31.1837C68.2988 26.598 68.2988 22.0441 68.2988 17.4405C67.5598 17.4405 66.8548 17.4604 66.1498 17.4306Z" fill="#CCCCCF"/>
<path d="M23.0538 29.2203C22.3558 29.4308 21.7258 29.6711 21.0618 29.8042C18.9038 30.2351 17.4938 29.6532 16.8788 28.128C16.4038 26.9562 16.4218 25.7468 16.4018 24.4698C18.7648 24.4698 21.0578 24.4698 23.4438 24.4698C23.3458 23.4073 23.3358 22.3706 23.1378 21.3676C22.8868 20.1105 22.3898 18.905 21.3608 17.8921C20.4498 16.9964 19.3538 16.7363 17.9868 17.0977C16.5668 17.4731 15.7008 18.3429 15.1178 19.3737C13.4108 22.3984 13.2638 25.5144 14.5718 28.6563C14.9648 29.6056 15.6318 30.4317 16.7398 30.96C18.5978 31.8517 21.6038 31.5419 23.4878 30.257C23.3398 29.8995 23.1888 29.538 23.0538 29.2203ZM17.4658 19.4988C17.7978 19.044 18.2398 18.6726 18.9808 18.7064C19.7068 18.7441 20.1368 19.1135 20.4278 19.5941C21.0718 20.6725 21.1798 21.8284 21.1738 23.0279C19.5518 23.0279 17.9848 23.0279 16.3348 23.0279C16.4568 21.7589 16.6848 20.5693 17.4658 19.4988Z" fill="#CCCCCF"/>
<path d="M24.1121 10.9054C24.1121 8.64931 24.1121 6.421 24.1121 4.1748C22.7121 4.1748 21.37 4.1748 19.949 4.1748C19.949 4.67925 19.9681 5.1321 19.9471 5.5868C19.8781 7.1677 19.8191 8.7506 19.1431 10.2639C18.9761 10.6373 18.8511 11.0364 18.2051 10.953C18.2051 11.7951 18.2051 12.5974 18.2051 13.3958C18.6131 13.3958 18.9781 13.3958 19.4051 13.3958C19.4051 12.8497 19.4051 12.3293 19.4051 11.809C20.9291 11.809 22.3881 11.809 23.9141 11.809C23.9141 12.3591 23.9141 12.8794 23.9141 13.3879C24.3421 13.3879 24.7031 13.3879 25.0491 13.3879C25.0491 12.5458 25.0491 11.7435 25.0491 10.9411C24.7231 10.9292 24.4461 10.9173 24.1121 10.9054ZM22.798 10.9054C21.848 10.9054 20.9561 10.9054 19.9941 10.9054C21.2111 9.0703 21.0461 7.09821 21.1331 5.13011C21.6891 5.13011 22.227 5.13011 22.798 5.13011C22.798 7.05251 22.798 8.95711 22.798 10.9054Z" fill="#CCCCCF"/>
<path d="M49.6479 17.4609C49.6479 22.0565 49.6479 26.6184 49.6539 31.1822C50.3549 31.1822 51.0209 31.1822 51.7339 31.1822C51.7339 27.0672 51.7339 22.982 51.7339 18.8412C53.8779 18.8412 55.981 18.8412 58.077 18.8412C58.077 18.3507 58.077 17.9157 58.077 17.4609C55.261 17.4609 52.4819 17.4609 49.6479 17.4609Z" fill="#CCCCCF"/>
</svg>
