<svg width="100" height="44" viewBox="0 0 100 44" fill="none" xmlns="http://www.w3.org/2000/svg">
<path d="M7.371 14.6924C10.12 14.6924 12.749 16.4818 14.224 18.5092C14.383 18.7078 14.543 19.0259 14.543 19.384V19.4234C14.543 20.6159 12.47 21.0139 11.314 21.4108C3.067 24.2326 2.828 24.1935 2.828 24.5511C2.828 25.0287 3.705 30.3162 8.724 30.3162C10.478 30.3162 12.232 29.5612 13.467 28.3693C13.665 28.1707 13.985 27.8123 14.383 27.8123C14.742 27.8123 15.021 28.05 15.021 28.4081C15.021 28.5679 14.941 28.8059 14.742 29.0435C13.108 31.1508 10.518 32.5821 7.69 32.5821C4.422 32.5815 0 30.4355 0 23.6377C0 18.072 3.386 14.6924 7.371 14.6924ZM6.493 16.8793C4.183 16.8793 2.66901 19.0262 2.66901 22.5645C2.66901 22.8025 2.788 22.843 2.868 22.843C2.988 22.843 10.24 20.0198 10.319 19.981C10.558 19.8611 10.677 19.6625 10.677 19.5033C10.677 19.0259 8.724 16.8793 6.493 16.8793Z" fill="#CCCCCF"/>
<path d="M22.6299 32.0651C22.5099 32.0651 20.8759 31.826 18.8839 31.826C16.9719 31.826 15.4179 32.0237 15.2979 32.0237C14.7799 32.0237 14.7409 31.5866 14.7409 31.3095V31.1899C14.7409 30.4349 15.0189 30.4737 16.3739 30.3148C17.4089 30.1958 17.4899 29.6003 17.4899 28.8045V8.57061C17.4899 7.97366 17.2509 7.97366 16.5729 7.57618C14.9789 6.62198 14.4619 6.46305 14.4619 6.02618V5.98566C14.4619 5.6675 14.5409 5.74826 19.3619 3.24321C19.4809 3.16331 19.6409 3.08398 19.8399 3.08398C20.3179 3.08398 20.3979 3.48147 20.3979 3.83929V29.0033C20.3979 30.276 20.8359 30.1961 22.4299 30.4746C22.9089 30.5533 23.1079 30.7525 23.1079 31.2696C23.1069 31.7475 23.0279 32.0651 22.6299 32.0651Z" fill="#CCCCCF"/>
<path d="M30.3981 14.6924C33.1471 14.6924 35.7771 16.4818 37.2511 18.5092C37.4111 18.7078 37.5701 19.0259 37.5701 19.384V19.4234C37.5701 20.6159 35.4981 21.0139 34.3421 21.4108C26.0951 24.2326 25.8561 24.1935 25.8561 24.5511C25.8561 25.0287 26.7321 30.3162 31.7531 30.3162C33.5061 30.3162 35.2591 29.5612 36.4951 28.3693C36.6931 28.1707 37.0131 27.8123 37.4111 27.8123C37.7701 27.8123 38.0481 28.05 38.0481 28.4081C38.0481 28.5679 37.9691 28.8059 37.7701 29.0435C36.1361 31.1508 33.5461 32.5821 30.7171 32.5821C27.4491 32.5821 23.0281 30.436 23.0281 23.6383C23.0271 18.072 26.4151 14.6924 30.3981 14.6924ZM29.5211 16.8793C27.2111 16.8793 25.6971 19.0262 25.6971 22.5645C25.6971 22.8025 25.8171 22.843 25.8961 22.843C26.0151 22.843 33.2681 20.0198 33.3471 19.981C33.5851 19.8611 33.7051 19.6625 33.7051 19.5033C33.7051 19.0259 31.7531 16.8793 29.5211 16.8793Z" fill="#CCCCCF"/>
<path d="M44.382 14.613C47.251 14.613 48.526 16.0443 49.403 16.0443C50.159 16.0443 50.957 15.5273 51.474 14.7717C51.673 14.4538 51.992 13.8574 52.631 13.8574C53.388 13.8574 54.145 14.6918 54.145 15.4876C54.145 17.0376 51.634 17.5943 51.276 17.8731C51.197 17.9521 51.117 18.0717 51.117 18.1904C51.117 18.4287 51.555 19.184 51.555 20.6952C51.555 24.3524 48.686 27.374 44.941 27.374C43.626 27.374 43.148 27.0153 42.63 27.0153C41.912 27.0153 40.836 28.1689 40.836 29.0424C40.836 31.4287 47.491 30.3552 50.599 31.2692C53.109 31.9848 54.224 33.9335 54.224 35.6821C54.224 37.8684 52.511 41.1293 45.937 41.1293C39.402 41.1293 38.127 37.9486 38.127 36.1198C38.127 33.6944 40.16 32.7008 40.199 32.6608C40.239 32.6203 40.279 32.5806 40.279 32.5013C40.279 32.2628 38.805 31.9052 38.805 30.1161C38.805 28.0873 41.036 26.4186 41.076 26.3792C41.116 26.3387 41.116 26.3002 41.116 26.2597C41.116 25.861 39.801 25.7415 38.685 23.715C38.167 22.8404 37.928 21.8468 37.928 20.8124C37.927 17.4747 40.677 14.613 44.382 14.613ZM46.853 39.2603C50.956 39.2603 51.912 37.5117 51.912 36.3575C51.912 34.9265 50.756 34.2114 50.317 34.0128C48.525 33.0977 46.056 33.4558 41.91 33.0195H41.792C41.512 33.0195 41.392 33.1793 41.114 33.4567C40.636 33.9329 40.357 34.6483 40.357 35.3248C40.358 37.7106 43.187 39.2603 46.853 39.2603ZM41.036 20.337C41.036 23.3183 42.668 25.9826 45.139 25.9826C47.291 25.9826 48.686 24.0354 48.686 21.5697C48.686 18.7868 47.052 15.9644 44.502 15.9644C42.509 15.9644 41.036 17.7142 41.036 20.337Z" fill="#CCCCCF"/>
<path d="M60.478 14.5737C61.992 14.5737 65.856 15.0505 66.256 18.9464C66.296 19.4237 66.334 19.9003 66.334 20.3777V28.2095C66.334 29.7604 67.29 29.9581 67.69 29.9581C68.924 29.9581 68.844 28.6467 69.443 28.6467C69.602 28.6467 69.801 28.8071 69.801 29.1637C69.801 30.0791 68.804 32.3048 66.733 32.3048C64.94 32.3048 63.983 30.7146 63.905 30.6746C63.865 30.6746 63.865 30.6344 63.826 30.6344C63.627 30.6344 63.746 30.8327 62.75 31.509C61.833 32.1056 60.519 32.6221 59.045 32.6221C56.296 32.6221 54.502 30.5936 54.502 28.1702V28.1296C54.502 26.6202 55.22 25.3472 56.176 24.5922C58.328 22.8818 63.109 22.7229 63.189 22.6824C63.468 22.6039 63.507 22.405 63.507 22.1254V20.6947C63.507 19.4223 63.347 18.4279 62.551 17.5136C62.073 16.9974 61.275 16.4399 60.241 16.4399C57.969 16.4399 56.894 18.9449 56.814 19.1044C56.694 19.2634 56.455 19.5416 55.937 19.5416C55.18 19.5416 54.344 19.0254 54.344 18.1106C54.342 16.6807 57.171 14.5737 60.478 14.5737ZM63.307 28.805C63.505 28.5268 63.545 28.2483 63.545 27.8908V26.9369V25.3064C63.545 24.3528 63.505 24.1533 63.147 24.1533C62.429 24.1533 59.72 24.3519 58.404 25.5846C57.887 26.0218 57.449 26.7371 57.449 27.7319C57.449 28.3679 57.647 29.3609 58.286 29.9173C58.764 30.3545 59.48 30.4349 59.998 30.4349C61.952 30.4361 63.107 29.0833 63.307 28.805Z" fill="#CCCCCF"/>
<path d="M74.382 16.9983H74.422C74.583 16.9983 76.456 14.6528 79.88 14.6131H79.959C81.754 14.6131 85.219 15.4078 85.618 20.3372C85.698 21.0137 85.698 21.6891 85.698 22.3657C85.698 23.042 85.657 23.757 85.657 29.2437V29.3224C85.657 30.4361 86.175 30.3568 87.571 30.5545C88.087 30.6336 88.128 30.9917 88.128 31.2696C88.128 31.9462 87.77 32.066 87.53 32.066C87.173 32.066 86.177 31.8263 84.184 31.8263C82.431 31.8263 80.996 32.066 80.917 32.066C80.44 32.066 80.358 31.6674 80.358 31.2696C80.358 30.5545 80.836 30.6336 82.431 30.3556C82.948 30.276 83.069 30.0771 83.069 29.4014V23.2394C83.069 22.5252 83.027 20.138 82.55 18.9461C81.674 16.9184 79.482 16.5606 78.567 16.5606C76.254 16.5606 74.622 18.4288 74.461 19.1447C74.422 19.3039 74.422 19.5025 74.422 19.6615V29.083V29.202C74.422 29.6391 74.461 30.1961 75.299 30.3151C76.972 30.593 77.451 30.5143 77.451 31.3889C77.451 31.7864 77.291 32.1039 76.932 32.1039C76.813 32.1039 75.179 31.8249 73.226 31.8249C71.314 31.8249 69.839 32.064 69.721 32.064C69.481 32.064 69.083 31.9048 69.083 31.3489C69.083 30.5528 69.401 30.5922 70.636 30.3953C71.633 30.2358 71.673 29.7187 71.673 29.0425V19.5419C71.673 18.588 71.673 18.6676 69.881 17.3156C69.761 17.1961 69.641 17.0774 69.641 16.9181V16.8788C69.641 16.5603 69.721 16.6 73.427 14.6128C73.546 14.5327 73.665 14.4536 73.826 14.4536C74.185 14.4536 74.303 14.7321 74.303 15.0497V16.5997C74.303 16.6799 74.263 16.7992 74.263 16.8388C74.262 16.9587 74.341 16.9983 74.382 16.9983Z" fill="#CCCCCF"/>
<path d="M87.926 16.7999C87.926 16.1239 89.92 15.408 92.069 11.7516C92.19 11.5518 92.428 11.0356 92.868 11.0356C93.104 11.0356 93.385 11.1546 93.385 11.6714C93.385 12.2281 93.345 13.8977 93.345 14.4544C93.345 15.1304 93.663 15.2493 94.142 15.2493H97.729C97.847 15.2493 97.927 15.289 98.047 15.289C98.407 15.289 99.083 15.289 99.083 16.0452C99.083 16.2826 98.924 16.9594 98.724 17.1968C98.565 17.356 98.366 17.3963 98.007 17.3963H93.346C93.066 17.3963 92.947 17.4753 92.947 17.7544C92.908 25.1888 92.908 26.1025 92.908 27.0575C92.908 28.448 93.266 29.9977 94.939 29.9977C96.852 29.9977 98.407 27.6131 99.282 27.6131C99.72 27.6131 100 27.9712 100 28.3287C100 28.646 99.8 28.8846 99.72 29.0047C98.324 30.5938 96.373 32.5815 94.181 32.5815C92.587 32.5815 90.435 31.4695 90.156 27.7332C90.116 27.2955 90.116 26.898 90.116 26.4606C90.116 24.7108 90.277 18.5494 90.277 17.6745C90.277 17.4756 90.236 17.3164 89.996 17.3164H88.722C88.365 17.3161 87.926 17.2764 87.926 16.7999Z" fill="#CCCCCF"/>
<path d="M59.823 42.8994L59.946 43.8436C59.709 43.9082 59.498 43.9396 59.311 43.9396C59.006 43.9396 58.771 43.8778 58.603 43.7548C58.436 43.6323 58.319 43.4702 58.249 43.2696C58.181 43.0707 58.147 42.6491 58.147 42.0062V38.3753H57.531V37.5427H58.147V35.9798L58.98 35.3389V37.5439H59.825V38.3762H58.98V42.0682C58.98 42.3735 58.995 42.5689 59.025 42.656C59.055 42.7431 59.103 42.8132 59.169 42.8655C59.236 42.9167 59.331 42.9434 59.456 42.9434C59.548 42.9417 59.671 42.927 59.823 42.8994Z" fill="#CCCCCF"/>
<path d="M62.2661 43.8562V35.1426H63.1051V38.2693C63.4951 37.6893 63.9901 37.401 64.5861 37.401C64.9541 37.401 65.2721 37.493 65.5421 37.6772C65.8121 37.8629 66.0051 38.1167 66.1221 38.4417C66.2401 38.7662 66.2971 39.2381 66.2971 39.8564V43.8571H65.4591V39.8564C65.4591 39.3221 65.3671 38.9318 65.1861 38.6889C65.0041 38.4435 64.7481 38.3236 64.4151 38.3236C64.1671 38.3236 63.9331 38.4055 63.7131 38.5694C63.4931 38.7343 63.3371 38.9579 63.2441 39.2384C63.1501 39.5198 63.1051 39.9081 63.1051 40.4039V43.8582L62.2661 43.8562Z" fill="#CCCCCF"/>
<path d="M72.585 41.8234L73.453 41.9608C73.315 42.6054 73.063 43.1078 72.692 43.4642C72.322 43.8206 71.851 43.9985 71.276 43.9985C70.551 43.9985 69.977 43.7143 69.554 43.1452C69.129 42.577 68.917 41.7794 68.917 40.7528C68.917 39.6914 69.131 38.8668 69.56 38.2799C69.988 37.6939 70.545 37.3999 71.228 37.3999C71.89 37.3999 72.431 37.6879 72.851 38.2621C73.27 38.8375 73.479 39.6451 73.479 40.6873C73.479 40.7517 73.479 40.8471 73.475 40.973H69.784C69.815 41.6662 69.97 42.1973 70.246 42.5655C70.523 42.9331 70.867 43.119 71.28 43.119C71.588 43.119 71.851 43.0161 72.068 42.8098C72.285 42.6037 72.458 42.2749 72.585 41.8234ZM69.831 40.0929H72.596C72.557 39.5624 72.453 39.1646 72.278 38.8979C72.01 38.4863 71.665 38.2805 71.239 38.2805C70.853 38.2805 70.529 38.4455 70.268 38.7749C70.004 39.1025 69.858 39.5422 69.831 40.0929Z" fill="#CCCCCF"/>
<path d="M76.1279 43.8564V37.5429H76.8779V38.4287C77.0319 38.1195 77.2409 37.8717 77.4979 37.6832C77.7559 37.4947 78.0489 37.4004 78.3789 37.4004C78.7449 37.4004 79.0459 37.4975 79.2799 37.693C79.5139 37.8867 79.6809 38.158 79.7769 38.5069C80.1679 37.7706 80.6799 37.4004 81.3059 37.4004C81.7969 37.4004 82.1759 37.574 82.4409 37.9212C82.7039 38.2669 82.8359 38.8012 82.8359 39.5229V43.8559H82.002V39.8793C82.002 39.451 81.9749 39.1429 81.9209 38.9541C81.8659 38.7662 81.7679 38.6135 81.6259 38.5C81.4819 38.3859 81.3159 38.3267 81.1219 38.3267C80.7749 38.3267 80.4859 38.4753 80.2549 38.7702C80.0259 39.0642 79.9099 39.5376 79.9099 40.1874V43.8564H79.0719V39.7548C79.0719 39.28 79.0049 38.9225 78.8669 38.6854C78.7289 38.4468 78.507 38.3279 78.196 38.3279C77.96 38.3279 77.7419 38.406 77.5419 38.5653C77.3399 38.7236 77.1949 38.9561 77.1049 39.2614C77.0139 39.5666 76.9679 40.0063 76.9679 40.5806V43.8559H76.131L76.1279 43.8564Z" fill="#CCCCCF"/>
<path d="M89.0879 41.8234L89.9559 41.9608C89.8179 42.6054 89.5659 43.1078 89.1949 43.4642C88.8249 43.8206 88.3539 43.9985 87.7789 43.9985C87.0539 43.9985 86.4819 43.7143 86.0559 43.1452C85.6329 42.577 85.4199 41.7794 85.4199 40.7528C85.4199 39.6914 85.6339 38.8668 86.0619 38.2799C86.4909 37.6939 87.0479 37.3999 87.7319 37.3999C88.3929 37.3999 88.9329 37.6879 89.3529 38.2621C89.7729 38.8375 89.9839 39.6451 89.9839 40.6873C89.9839 40.7517 89.9819 40.8471 89.9779 40.973H86.2879C86.3179 41.6662 86.4739 42.1973 86.7499 42.5655C87.0259 42.9331 87.3709 43.119 87.7849 43.119C88.0919 43.119 88.3549 43.0161 88.5709 42.8098C88.7889 42.6037 88.9599 42.2749 89.0879 41.8234ZM86.3339 40.0929H89.0979C89.0619 39.5624 88.9569 39.1646 88.7809 38.8979C88.5139 38.4863 88.1669 38.2805 87.7409 38.2805C87.3559 38.2805 87.0319 38.4455 86.7689 38.7749C86.5069 39.1025 86.3619 39.5422 86.3339 40.0929Z" fill="#CCCCCF"/>
<path d="M92.2959 41.9722L93.1259 41.8067C93.1719 42.2306 93.2999 42.5551 93.5139 42.7813C93.7279 43.0069 94.0249 43.1204 94.4069 43.1204C94.7929 43.1204 95.0789 43.0193 95.2659 42.8201C95.4519 42.6206 95.5449 42.3838 95.5449 42.1151C95.5449 41.8742 95.4639 41.6828 95.2989 41.5457C95.1839 41.4503 94.8969 41.329 94.4409 41.1824C93.8249 40.9844 93.3999 40.8131 93.1629 40.6688C92.9249 40.5245 92.7449 40.3242 92.6229 40.0679C92.4979 39.8109 92.4359 39.5304 92.4359 39.2206C92.4359 38.9392 92.4879 38.6785 92.5879 38.4388C92.6889 38.2006 92.8259 38.0002 92.9999 37.8425C93.1299 37.7192 93.3079 37.6157 93.5339 37.5297C93.7599 37.4447 94.0019 37.4019 94.2599 37.4019C94.6489 37.4019 94.9879 37.4737 95.2829 37.6163C95.5759 37.7594 95.7929 37.952 95.9339 38.1971C96.0729 38.4403 96.1689 38.7659 96.2219 39.1734L95.4019 39.316C95.3639 38.9915 95.2559 38.7369 95.0779 38.5555C94.8999 38.373 94.6469 38.2816 94.3209 38.2816C93.9329 38.2816 93.6599 38.3635 93.4949 38.5262C93.3319 38.6886 93.2489 38.8794 93.2489 39.0967C93.2489 39.2347 93.2829 39.36 93.3509 39.4715C93.4179 39.5856 93.5259 39.681 93.6729 39.7563C93.7559 39.796 94.0029 39.8871 94.4129 40.0302C95.0069 40.2317 95.4189 40.3967 95.6549 40.5263C95.8889 40.6553 96.0749 40.8433 96.2059 41.0882C96.3409 41.3336 96.4079 41.6388 96.4079 42.0041C96.4079 42.3602 96.3259 42.6959 96.1629 43.0112C95.9989 43.3268 95.7639 43.5699 95.4559 43.7427C95.1489 43.9157 94.8009 44.0005 94.4129 44.0005C93.7699 44.0005 93.2779 43.8303 92.9419 43.4906C92.6039 43.1471 92.3889 42.6413 92.2959 41.9722Z" fill="#CCCCCF"/>
<path d="M89.0041 6.0784L87.9011 2.64301L83.2951 4.64107L83.7581 0H80.1431L80.5941 4.47725L76.3671 2.64301L75.2651 6.0784L79.6451 7.01305L76.3481 10.4993L79.2131 12.6994L82.0031 8.23109L84.7921 12.6994L87.6581 10.4993L84.4041 7.06048L89.0041 6.0784Z" fill="#CCCCCF"/>
</svg>
