<svg width="100" height="17" viewBox="0 0 100 17" fill="none" xmlns="http://www.w3.org/2000/svg">
<path d="M6.9049 12.5145L3.76021 4.20068H0L4.8537 16.0969H8.77329L13.8779 4.20068H10.1635L6.9049 12.5145Z" fill="#CCCCCF"/>
<path d="M17.9289 4.20068H14.7842V16.0973H17.9289V4.20068Z" fill="#CCCCCF"/>
<path d="M17.9294 0.0439453H14.7847V2.86877H17.9294V0.0439453Z" fill="#CCCCCF"/>
<path d="M25.0019 4.08591C24.7955 4.13192 24.6006 4.18559 24.4172 4.24694C24.0196 4.38457 23.6983 4.58375 23.4537 4.84387C23.2092 5.10439 23.0026 5.4412 22.8346 5.8545V4.20093H19.6899V16.0974H22.8346V6.7731H26.3668V4.10911C26.1375 4.04796 25.8929 4.01709 25.6328 4.01709C25.4184 4.01689 25.2083 4.0397 25.0019 4.08591Z" fill="#CCCCCF"/>
<path d="M35.1373 13.4791H32.0383C31.6583 13.4791 31.3012 13.3415 30.9672 13.0654C30.633 12.79 30.4659 12.4606 30.4659 12.078V4.20068H27.2983V12.3309C27.2983 13.2345 27.5566 14.0383 28.0732 14.7424C28.529 15.3551 29.1365 15.7526 29.8964 15.9367C30.3521 16.0442 31.1344 16.0973 32.2435 16.0973H38.3052V4.20068H35.1377V13.4791H35.1373Z" fill="#CCCCCF"/>
<path d="M47.7389 8.93164H44.2068C43.8572 8.93164 43.5575 8.80522 43.3068 8.55256C43.0561 8.3001 42.9307 7.99829 42.9307 7.64556C42.9307 7.32389 43.0257 7.03683 43.2157 6.78437C43.4056 6.53191 43.6293 6.40529 43.888 6.40529H50.5873V4.15479H43.0675C41.9736 4.15479 41.1452 4.5376 40.5837 5.30284C40.097 5.97685 39.8545 6.86459 39.8545 7.96683C39.8545 8.74781 40.1799 9.4751 40.8315 10.1487C41.4829 10.8227 42.157 11.1597 42.8542 11.1597H46.1263C47.4594 11.1597 48.1262 11.6568 48.1262 12.6527C48.1262 13.0817 47.9705 13.4104 47.6601 13.6399C47.3499 13.8691 46.967 13.984 46.513 13.984H40.105V16.1428H47.921C48.9085 16.1428 49.7254 15.783 50.3713 15.0634C51.0169 14.3442 51.3396 13.4788 51.3396 12.4686C51.3396 11.4429 51.0169 10.5966 50.3713 9.93106C49.7252 9.26491 48.8476 8.93164 47.7389 8.93164Z" fill="#CCCCCF"/>
<path d="M56.9611 0.0439453H53.8392V4.20086H51.8335V6.68121H53.8392V12.2394C53.8392 12.8667 53.8919 13.4107 53.998 13.8696C54.1044 14.3293 54.3398 14.7503 54.7045 15.1329C55.3274 15.776 56.0793 16.0973 56.9605 16.0973H59.8998V13.7778H58.9655C58.3426 13.7778 57.841 13.617 57.4615 13.2955C57.1269 12.9734 56.9605 12.5686 56.9605 12.0784V6.68121H60.0371V4.20106H56.9605L56.9611 0.0439453Z" fill="#CCCCCF"/>
<path d="M72.3066 5.75358C71.0678 4.71838 69.4241 4.20068 67.3729 4.20068C65.5047 4.20068 63.9317 4.68397 62.6556 5.65036C61.2275 6.72389 60.5137 8.19657 60.5137 10.0682C60.5137 12.3077 61.1748 13.9563 62.4962 15.0151C63.6355 15.9359 65.2382 16.3956 67.3042 16.3956C69.3699 16.3956 71.003 15.8897 72.2036 14.8765C73.5097 13.7727 74.1633 12.1848 74.1633 10.1134C74.1637 8.24277 73.5443 6.78917 72.3066 5.75358ZM69.8797 12.9477C69.3324 13.6699 68.4968 14.0303 67.3723 14.0303C66.3848 14.0303 65.5796 13.6848 64.9565 12.9939C64.334 12.3028 64.0222 11.3737 64.0222 10.206C64.0222 9.19225 64.3297 8.35151 64.945 7.683C65.5599 7.01509 66.3385 6.68083 67.2808 6.68083C68.3138 6.68083 69.1303 7.00742 69.731 7.66019C70.3303 8.31317 70.6306 9.12304 70.6306 10.0904C70.6311 11.3344 70.3805 12.2874 69.8797 12.9477Z" fill="#CCCCCF"/>
<path d="M79.7853 0.0439453H76.6627V4.20086H74.6577V6.68121H76.6627V12.2394C76.6627 12.8667 76.7155 13.4107 76.8223 13.8696C76.9286 14.3293 77.1637 14.7503 77.5283 15.1329C78.1512 15.776 78.9031 16.0973 79.7843 16.0973H82.724V13.7778H81.7893C81.1668 13.7778 80.6648 13.617 80.2857 13.2955C79.9512 12.9734 79.7843 12.5686 79.7843 12.0784V6.68121H82.8609V4.20106H79.7851V0.0439453H79.7853Z" fill="#CCCCCF"/>
<path d="M93.7354 5.34677C93.3404 4.96474 92.8694 4.67827 92.323 4.48736C91.7757 4.29624 90.9478 4.20068 89.8391 4.20068H88.8595H83.8V6.81867H89.6851C90.0944 6.81867 90.4128 6.85327 90.6401 6.92169C90.8676 6.99071 91.0863 7.14781 91.2985 7.39279C91.4501 7.59177 91.5604 7.76401 91.6281 7.90931C91.6963 8.05501 91.7301 8.22744 91.7301 8.42583V9.06897H86.2299C85.3059 9.06897 84.5364 9.40892 83.9231 10.0875C83.3093 10.7666 83.0024 11.6246 83.0024 12.6628C83.0024 13.6551 83.3403 14.4754 84.0163 15.1244C84.6923 15.7733 85.5088 16.0967 86.4661 16.0967H94.9893V9.28918C94.9893 8.35701 94.905 7.59335 94.7386 6.9972C94.5702 6.40144 94.2364 5.8513 93.7354 5.34677ZM91.7301 13.6626H87.6283C87.2941 13.6626 86.9981 13.557 86.7396 13.3446C86.4809 13.1327 86.3522 12.8673 86.3522 12.5485C86.3522 12.1846 86.4852 11.893 86.7511 11.673C87.0167 11.4536 87.3399 11.3429 87.7198 11.3429H91.7303V13.6626H91.7301Z" fill="#CCCCCF"/>
<path d="M100 0.0439453H96.7871V16.0975H100V0.0439453Z" fill="#CCCCCF"/>
</svg>
