<svg width="100" height="39" viewBox="0 0 100 39" fill="none" xmlns="http://www.w3.org/2000/svg">
<path d="M87.0473 30.4562C94.4861 30.6543 100 27.8189 100 22.2689C100 18.1749 96.8508 15.184 91.8851 15.184C85.2262 15.184 81.7621 20.3204 80.3769 25.804C79.5687 29.0096 78.3373 33.2188 75.874 33.2188C74.3343 33.2188 73.9105 31.6743 73.9105 29.7434C73.9105 28.1985 73.9105 25.3794 73.9105 23.2941C73.9105 18.0034 71.332 15.1842 67.2906 15.1842C63.711 15.1842 60.9421 17.3466 59.3645 19.9725L59.2107 15.5317C57.8637 15.5317 54.0151 15.5317 54.0151 15.5317C54.0151 15.5317 53.4392 33.2188 47.6253 33.2188C45.6238 33.2188 44.9696 30.9378 44.9696 28.3526V15.5314H39.8898C37.1954 18.5823 33.5806 19.5086 30.8861 19.5086C26.0365 19.5086 22.3031 16.1106 22.3031 10.2016C22.3031 7.30551 23.4193 5.79906 24.9973 5.79906C26.4983 5.79906 27.4991 7.15069 27.4991 9.8927C27.4991 11.4516 27.083 13.1605 26.776 14.1711C26.776 14.1711 28.2706 16.7867 32.3564 15.9841C33.2242 14.0514 33.6956 11.5482 33.6956 9.35251C33.6956 3.44349 30.6935 0.00683594 25.1895 0.00683594C19.5317 0.00683594 16.2213 4.37083 16.2213 10.1252C16.2213 15.8257 18.8774 20.719 23.2568 22.9484C21.4155 26.6448 19.0718 29.9002 16.6284 32.3536C12.1946 26.9754 8.18584 19.8011 6.54127 5.79924H0C3.02202 29.1179 12.0288 36.5429 14.41 37.9685C15.7571 38.7801 16.9174 38.741 18.149 38.0456C20.0828 36.9429 25.8883 31.1184 29.1063 24.2957C31.9937 24.2884 36.1241 23.6042 38.7735 21.5939V28.2371C38.7735 35.729 41.6215 38.6256 46.0476 38.6256C49.5982 38.6256 52.3389 35.8483 53.6681 32.7328V38.2006H59.7879V31.7507C59.7879 24.3747 62.2484 20.783 65.3279 20.783C67.0598 20.783 67.7912 21.9418 67.7912 24.8767C67.7912 26.6145 67.7912 29.0474 67.7912 30.7464C67.7912 35.7281 70.4082 38.6249 74.3341 38.6249C77.5602 38.6249 80.4554 36.1001 81.595 32.9071C83.5401 36.9425 88.0184 38.6253 91.9234 38.6253C94.8741 38.6253 97.2789 38.0106 99.1528 36.8908V31.292C97.5675 32.3751 95.6113 33.2959 92.7705 33.2959C90.0609 33.2959 88.0192 32.4345 87.0473 30.4562ZM91.8463 20.5902C93.5408 20.5902 94.3423 21.4962 94.3423 22.6159C94.3423 24.1002 92.9647 26.6155 86.4436 26.6901C86.7008 23.0995 89.0508 20.5902 91.8463 20.5902Z" fill="#CCCCCF"/>
<path d="M42.225 12.3259C44.5725 12.3259 46.1889 10.5498 46.1889 8.27083C46.1889 5.99259 44.5725 4.25488 42.225 4.25488C39.8772 4.25488 38.2991 5.8383 38.2991 8.27083C38.2991 10.7039 39.8772 12.3259 42.225 12.3259Z" fill="#CCCCCF"/>
</svg>
