<svg width="100" height="25" viewBox="0 0 100 25" fill="none" xmlns="http://www.w3.org/2000/svg">
<path d="M36.6655 12.9016C36.6253 11.2938 35.9375 9.83281 34.3972 9.0289C32.1674 7.86524 28.3351 7.86708 26.4381 10.6643C26.3942 10.7303 26.4162 10.8423 26.4034 10.9322C26.3339 10.879 26.2662 10.8239 26.1967 10.7689C26.1967 10.1338 26.1967 9.5006 26.1967 8.81599C24.7754 8.81599 23.4455 8.81599 22.1284 8.81599C22.1284 14.0671 22.1284 19.2687 22.1284 24.4556C23.5735 24.4556 24.9766 24.4556 26.4217 24.4556C26.4217 24.1839 26.4217 23.9472 26.4217 23.7141C26.4217 21.1408 26.3833 18.562 26.4455 15.9925C26.4711 15.0894 26.632 14.146 26.9449 13.3036C27.3985 12.094 28.7375 11.5508 30.2284 11.7802C31.4284 11.9637 32.1345 12.6906 32.3375 14.0249C32.4235 14.5774 32.471 15.1335 32.471 15.6896C32.4857 18.3932 32.4802 21.0931 32.4802 23.8003C32.4802 24.0242 32.4802 24.2518 32.4802 24.4556C33.9765 24.4556 35.3759 24.4556 36.6985 24.4556C36.6985 20.57 36.7698 16.734 36.6655 12.9016Z" fill="#CCCCCF"/>
<path d="M49.5971 0.0302734C49.5971 3.50472 49.5971 6.98099 49.5971 10.5545C49.2952 10.2315 49.1032 10.0021 48.8873 9.79652C46.4141 7.43985 41.8428 7.90604 39.7447 10.8354C37.5294 13.9244 37.4874 17.3438 38.8483 20.754C40.1435 24.0155 43.2038 25.5003 46.6263 24.7643C47.9507 24.4743 48.9971 23.7677 49.8641 22.4701C49.8641 23.274 49.8641 23.8613 49.8641 24.4633C51.2562 24.4633 52.5861 24.4633 53.9617 24.4633C53.9617 16.2902 53.9617 8.16117 53.9617 0.0302734C52.5092 0.0302734 51.0531 0.0302734 49.5971 0.0302734ZM49.2184 19.5848C48.7538 20.8384 47.7769 21.5193 46.4471 21.6331C45.13 21.7451 44.0636 21.2495 43.3008 20.1501C42.0642 18.3587 42.0002 14.9963 43.1727 13.1572C43.9483 11.9458 45.1007 11.5181 46.4763 11.6283C47.7641 11.7311 48.7355 12.3845 49.1873 13.5775C49.7434 15.4111 49.6721 16.5637 49.6721 16.5637C49.6721 16.5637 49.8111 17.9715 49.2184 19.5848Z" fill="#CCCCCF"/>
<path d="M15.9453 8.79443C15.9453 14.0713 15.9453 19.2692 15.9453 24.4597C17.374 24.4597 18.7496 24.4597 20.1398 24.4597C20.1398 19.2214 20.1398 14.0254 20.1398 8.79443C18.7294 8.79443 17.3484 8.79443 15.9453 8.79443Z" fill="#CCCCCF"/>
<path d="M15.5324 0.864258L15.5178 0.87894L15.5123 3.01904L17.2355 4.03953L15.5032 5.2197L15.4995 7.31392C17.2574 6.17412 18.891 5.11876 20.583 4.01934L15.5324 0.864258Z" fill="#CCCCCF"/>
<path d="M11.5938 8.7553C11.1512 8.74062 10.9536 8.90397 10.7835 9.28941C9.80116 11.5231 8.79324 13.7458 7.78715 15.9722C7.69751 16.1685 7.59508 16.3668 7.44691 16.6604C7.31337 16.3668 7.22922 16.1979 7.15605 16.0236C6.18106 13.7642 5.19692 11.5029 4.23656 9.23434C4.08839 8.88745 3.91278 8.74796 3.52681 8.75897C2.35242 8.79201 1.17621 8.78283 0 8.79201C0 8.83239 0 8.87644 0 8.91865C0.0786581 9.04163 0.173779 9.16276 0.234145 9.29308C2.51706 14.111 4.79448 18.929 7.07557 23.747C7.18349 23.9672 7.29874 24.1838 7.46703 24.5032C10.0243 19.2062 12.5249 14.0321 15.0676 8.76815C13.8438 8.76815 12.7152 8.79201 11.5938 8.7553Z" fill="#CCCCCF"/>
<path d="M56.1091 0.192383L56.0981 0.205231L56.0908 2.349L57.814 3.36949L56.0872 4.54783L56.0835 6.64203C57.8378 5.50408 59.4731 4.44688 61.1652 3.34746L56.1091 0.192383Z" fill="#CCCCCF"/>
<path d="M99.6943 21.2461C99.6523 18.5168 99.6889 15.793 99.6797 13.0693C99.6724 10.8338 98.7505 9.5508 96.6395 8.8405C95.0919 8.32108 93.4877 8.27703 91.8834 8.36146C90.2554 8.44221 88.6932 8.78544 87.3597 9.77656C86.0993 10.7145 85.4847 11.9864 85.406 13.5887C86.853 13.5887 88.2396 13.5887 89.4286 13.5887C89.9334 12.8601 90.2206 12.0727 90.7822 11.7093C91.9237 10.9696 93.2407 11.0558 94.4663 11.6248C95.2127 11.9625 95.3462 12.704 95.3425 13.4309C95.3371 14.11 94.9145 14.534 94.2816 14.7212C93.7493 14.8772 93.206 14.9965 92.6627 15.0974C91.0676 15.3874 89.4341 15.5269 87.8883 15.9784C85.8195 16.5731 84.914 18.0469 84.9195 20.2549C84.9231 22.3914 85.9548 23.9148 87.9158 24.5627C88.5359 24.7664 89.2127 24.8655 89.8639 24.8985C91.9273 25.0105 93.8517 24.5792 95.4669 23.0962C95.595 23.6046 95.7029 24.0469 95.809 24.458C97.2999 24.458 98.7175 24.458 99.9998 24.458C99.8901 23.3605 99.7163 22.3033 99.6943 21.2461ZM95.2346 19.4162C95.0499 20.6991 94.3273 21.6076 93.0304 21.8499C92.2877 21.9802 91.4938 21.9729 90.7511 21.8646C89.8603 21.738 89.3792 21.1525 89.2603 20.3229C89.1267 19.4584 89.4505 18.5939 90.2316 18.2654C91.0219 17.9258 91.8944 17.7716 92.7377 17.5734C93.1785 17.4688 93.6285 17.4578 94.0639 17.355C94.47 17.2632 94.8669 17.1017 95.3993 16.9255C95.348 17.8047 95.3517 18.6178 95.2346 19.4162Z" fill="#CCCCCF"/>
<path d="M79.0783 0.192383L79.0692 0.205231L79.0582 2.349L80.7832 3.36949L79.0546 4.54783L79.0527 6.64203C80.807 5.50408 82.4387 4.44688 84.1326 3.34746L79.0783 0.192383Z" fill="#CCCCCF"/>
<path d="M73.7974 18.4404C73.3766 18.4312 73.223 18.5542 73.1224 18.9837C72.7309 20.6558 71.6571 21.5514 70.0254 21.6487C68.5364 21.7368 67.3309 20.9292 66.7456 19.371C66.0486 17.5282 66.0889 15.6653 66.7986 13.8372C67.1883 12.8442 67.8505 12.077 68.9242 11.754C70.9401 11.1483 72.4199 12.0256 73.1297 14.2777C74.476 14.2777 75.8388 14.2777 77.2931 14.2777C77.2638 12.925 76.8193 11.7889 76.0071 10.8032C73.5925 7.88677 68.0736 7.41507 64.9383 9.90023C62.4743 11.8494 61.7956 14.5585 61.9676 17.5447C62.1194 20.1896 63.2188 22.3388 65.5053 23.7705C67.1553 24.802 68.9791 25.0222 70.8742 24.8864C74.4285 24.6258 77.1723 21.9332 77.3864 18.4496C76.1864 18.4496 74.9864 18.4679 73.7974 18.4404Z" fill="#CCCCCF"/>
<path d="M56.0835 8.81543C56.0835 14.0629 56.0835 19.2608 56.0835 24.466C57.5103 24.466 58.8932 24.466 60.3054 24.466C60.3054 19.2332 60.3054 14.0298 60.3054 8.81543C58.8768 8.81543 57.4829 8.81543 56.0835 8.81543Z" fill="#CCCCCF"/>
<path d="M79.0586 8.79443C79.0586 14.0639 79.0586 19.2655 79.0586 24.4671C80.4909 24.4671 81.8738 24.4671 83.2823 24.4671C83.2823 19.2288 83.2823 14.029 83.2823 8.79443C81.872 8.79443 80.4891 8.79443 79.0586 8.79443Z" fill="#CCCCCF"/>
</svg>
